<svg width="28" height="28" viewBox="0 0 28 28" fill="none" xmlns="http://www.w3.org/2000/svg">
<path d="M19.833 2.33334H8.16634C4.94468 2.33334 2.33301 4.94501 2.33301 8.16667V19.8333C2.33301 23.055 4.94468 25.6667 8.16634 25.6667H19.833C23.0547 25.6667 25.6663 23.055 25.6663 19.8333V8.16667C25.6663 4.94501 23.0547 2.33334 19.833 2.33334Z" stroke="white" stroke-width="2" stroke-linecap="round" stroke-linejoin="round"/>
<path d="M18.6667 13.265C18.8106 14.236 18.6448 15.2276 18.1927 16.0989C17.7406 16.9701 17.0253 17.6766 16.1485 18.118C15.2718 18.5593 14.2782 18.7129 13.3091 18.5569C12.34 18.401 11.4447 17.9434 10.7506 17.2494C10.0566 16.5553 9.599 15.66 9.44306 14.6909C9.28712 13.7218 9.44073 12.7282 9.88203 11.8514C10.3233 10.9747 11.0299 10.2594 11.9011 9.80728C12.7724 9.3552 13.764 9.18935 14.735 9.33333C15.7254 9.4802 16.6423 9.94171 17.3503 10.6497C18.0583 11.3577 18.5198 12.2746 18.6667 13.265Z" stroke="white" stroke-width="2" stroke-linecap="round" stroke-linejoin="round"/>
<path d="M20.417 7.58334H20.4281" stroke="white" stroke-width="2" stroke-linecap="round" stroke-linejoin="round"/>
</svg>
