<svg aria-hidden="true" style="position: absolute; width: 0; height: 0; overflow: hidden;" version="1.1" xmlns="http://www.w3.org/2000/svg" xmlns:xlink="http://www.w3.org/1999/xlink">
<defs>
<symbol id="icon-arrow-hero" viewBox="0 0 47 32">
<path d="M0.418 30.357c-0.416 0.26-0.543 0.809-0.283 1.225s0.809 0.543 1.225 0.283l-0.942-1.508zM46.984 3.049c0.11-0.478-0.188-0.956-0.666-1.066l-7.795-1.8c-0.478-0.11-0.956 0.188-1.066 0.666s0.188 0.956 0.666 1.066l6.929 1.6-1.6 6.929c-0.111 0.478 0.188 0.956 0.666 1.066s0.956-0.188 1.066-0.666l1.8-7.795zM1.36 31.865l45.229-28.262-0.942-1.508-45.229 28.262 0.942 1.508z"></path>
</symbol>
<symbol id="icon-slider-tab-left" viewBox="0 0 49 32">
<path  d="M32.5 31.5c-8.56 0-15.5-6.94-15.5-15.5s6.94-15.5 15.5-15.5c8.56 0 15.5 6.94 15.5 15.5s-6.94 15.5-15.5 15.5zM32.5 32c8.837 0 16-7.163 16-16s-7.163-16-16-16c-8.837 0-16 7.163-16 16s7.163 16 16 16z"></path>
<path d="M-0.677 16.177c-0.045-0.045-0.073-0.108-0.073-0.177s0.028-0.132 0.073-0.177l1.591-1.591c0.045-0.045 0.108-0.073 0.177-0.073 0.138 0 0.25 0.112 0.25 0.25 0 0.069-0.028 0.132-0.073 0.177l-1.165 1.164h32.397v0.5h-32.397l1.165 1.164c0.045 0.045 0.073 0.108 0.073 0.177 0 0.138-0.112 0.25-0.25 0.25-0.069 0-0.132-0.028-0.177-0.073v0l-1.591-1.59z"></path>
</symbol>
<symbol id="icon-slider-tab-right" viewBox="0 0 49 32">
<path  d="M16 31.5c-8.56 0-15.5-6.94-15.5-15.5s6.94-15.5 15.5-15.5c8.56 0 15.5 6.94 15.5 15.5s-6.94 15.5-15.5 15.5zM16 32c8.837 0 16-7.163 16-16s-7.163-16-16-16c-8.836 0-16 7.163-16 16s7.163 16 16 16z"></path>
<path d="M47.086 14.232l1.591 1.591c0.045 0.045 0.073 0.108 0.073 0.177s-0.028 0.131-0.073 0.177l-1.591 1.591c-0.046 0.047-0.109 0.076-0.18 0.076-0.138 0-0.25-0.112-0.25-0.25 0-0.071 0.029-0.134 0.076-0.18l1.164-1.164h-32.397v-0.5h32.397l-1.164-1.164c-0.045-0.045-0.073-0.108-0.073-0.177 0-0.138 0.112-0.25 0.25-0.25 0.069 0 0.132 0.028 0.177 0.073v0z"></path>
</symbol>
<symbol id="icon-slider-desktop-left" viewBox="0 0 49 32">
<path d="M32.5 31.5c-8.56 0-15.5-6.94-15.5-15.5s6.94-15.5 15.5-15.5c8.56 0 15.5 6.94 15.5 15.5s-6.94 15.5-15.5 15.5zM32.5 32c8.837 0 16-7.163 16-16s-7.163-16-16-16c-8.837 0-16 7.163-16 16s7.163 16 16 16z"></path>
<path d="M0.323 16.177c-0.045-0.045-0.073-0.108-0.073-0.177s0.028-0.132 0.073-0.177l1.591-1.591c0.045-0.045 0.108-0.073 0.177-0.073 0.138 0 0.25 0.112 0.25 0.25 0 0.069-0.028 0.132-0.073 0.177l-1.165 1.164h32.397v0.5h-32.397l1.165 1.164c0.045 0.045 0.073 0.108 0.073 0.177 0 0.138-0.112 0.25-0.25 0.25-0.069 0-0.132-0.028-0.177-0.073v0l-1.591-1.59z"></path>
</symbol>
<symbol id="icon-slider-desktop-right" viewBox="0 0 49 32">
<path d="M16 31.5c-8.56 0-15.5-6.94-15.5-15.5s6.94-15.5 15.5-15.5c8.56 0 15.5 6.94 15.5 15.5s-6.94 15.5-15.5 15.5zM16 32c8.837 0 16-7.163 16-16s-7.163-16-16-16c-8.836 0-16 7.163-16 16s7.163 16 16 16z"></path>
<path d="M46.586 14.232l1.591 1.591c0.045 0.045 0.073 0.108 0.073 0.177s-0.028 0.131-0.073 0.177l-1.591 1.591c-0.046 0.047-0.109 0.076-0.18 0.076-0.138 0-0.25-0.112-0.25-0.25 0-0.071 0.029-0.134 0.076-0.18l1.164-1.164h-32.397v-0.5h32.397l-1.164-1.164c-0.045-0.045-0.073-0.108-0.073-0.177 0-0.138 0.112-0.25 0.25-0.25 0.069 0 0.132 0.028 0.177 0.073v0z"></path>
</symbol>
<symbol id="icon-slider-mob-left" viewBox="0 0 50 32">
<path  d="M33.778 30.815c-8.183 0-14.815-6.632-14.815-14.815s6.632-14.815 14.815-14.815c8.183 0 14.815 6.632 14.815 14.815s-6.632 14.815-14.815 14.815zM33.778 32c8.837 0 16-7.163 16-16s-7.163-16-16-16-16 7.163-16 16 7.163 16 16 16z"></path>
<path d="M0.766 17.012c-0.108-0.107-0.174-0.256-0.174-0.42s0.067-0.312 0.174-0.42v0l3.771-3.771c0.107-0.107 0.256-0.174 0.42-0.174 0.327 0 0.593 0.265 0.593 0.593 0 0.164-0.066 0.312-0.173 0.419v0l-2.76 2.76h31.755v1.185h-31.755l2.76 2.759c0.107 0.107 0.173 0.255 0.173 0.419 0 0.327-0.265 0.593-0.593 0.593-0.164 0-0.312-0.067-0.42-0.174v0l-3.771-3.77z"></path>
</symbol>
<symbol id="icon-slider-mob-right" viewBox="0 0 50 32">
<path d="M16 30.815c-8.183 0-14.815-6.632-14.815-14.815s6.632-14.815 14.815-14.815c8.183 0 14.815 6.632 14.815 14.815s-6.632 14.815-14.815 14.815zM16 32c8.837 0 16-7.163 16-16s-7.163-16-16-16-16 7.163-16 16 7.163 16 16 16z"></path>
<path  d="M45.241 11.217l3.771 3.771c0.107 0.107 0.173 0.255 0.173 0.419s-0.066 0.312-0.173 0.419l-3.771 3.771c-0.108 0.112-0.259 0.181-0.426 0.181-0.327 0-0.593-0.265-0.593-0.593 0-0.167 0.069-0.318 0.181-0.426l2.759-2.759h-31.755v-1.185h31.755l-2.759-2.76c-0.112-0.108-0.181-0.259-0.181-0.426 0-0.327 0.265-0.593 0.593-0.593 0.167 0 0.318 0.069 0.426 0.181l0 0z"></path>
</symbol>
<symbol id="icon-close-menu" viewBox="0 0 32 32">
<path d="M23.733 10.304l-1.504-1.504-5.963 5.963-5.963-5.963-1.504 1.504 5.963 5.963-5.963 5.963 1.504 1.504 5.963-5.963 5.963 5.963 1.504-1.504-5.963-5.963 5.963-5.963z"></path>
</symbol>
<symbol id="icon-Burger" viewBox="0 0 32 32">
<path d="M4 5.333h24v2.667h-24v-2.667zM12 14.667h16v2.667h-16v-2.667zM4 24h24v2.667h-24v-2.667z"></path>
</symbol>
<symbol id="icon-desktop-arrow-btn" viewBox="0 0 32 32">
<path d="M21.177 14.541c0.003-0.013 0.005-0.028 0.005-0.043 0-0.091-0.063-0.167-0.148-0.188l-0.001-0-1.69-0.39c-0.013-0.003-0.028-0.005-0.043-0.005-0.106 0-0.193 0.086-0.193 0.193 0 0.091 0.063 0.167 0.148 0.188l0.001 0 1.503 0.347-0.347 1.502c-0.003 0.013-0.005 0.028-0.005 0.043 0 0.106 0.086 0.193 0.193 0.193 0.091 0 0.167-0.063 0.188-0.148l0-0.001 0.39-1.691zM11.283 20.79l9.809-6.129-0.204-0.327-9.809 6.129 0.204 0.327zM28.663 17.119c0.009-0.15 0.038-0.291 0.087-0.422 0.052-0.131 0.112-0.233 0.181-0.306l0.188 0.122c-0.060 0.071-0.114 0.163-0.162 0.276-0.044 0.106-0.073 0.229-0.080 0.357l-0 0.003c-0.010 0.173 0.009 0.299 0.058 0.379 0.051 0.079 0.122 0.122 0.212 0.127 0.067 0.004 0.12-0.015 0.16-0.057 0.042-0.039 0.074-0.093 0.096-0.161 0.025-0.068 0.047-0.145 0.065-0.229s0.040-0.169 0.063-0.254c0.023-0.082 0.054-0.157 0.093-0.224 0.041-0.067 0.094-0.121 0.159-0.161 0.065-0.038 0.149-0.054 0.253-0.048 0.099 0.006 0.187 0.039 0.262 0.099s0.132 0.145 0.169 0.253c0.040 0.111 0.056 0.244 0.046 0.399-0.008 0.128-0.032 0.247-0.072 0.36l0.003-0.009c-0.037 0.116-0.083 0.211-0.138 0.284l-0.191-0.119c0.060-0.078 0.104-0.162 0.133-0.253 0.031-0.091 0.049-0.183 0.054-0.275 0.009-0.164-0.012-0.287-0.066-0.369-0.051-0.079-0.12-0.122-0.208-0.127-0.069-0.004-0.125 0.014-0.166 0.053-0.044 0.046-0.079 0.1-0.102 0.161l-0.001 0.003c-0.025 0.070-0.047 0.147-0.066 0.229-0.019 0.085-0.041 0.168-0.067 0.25-0.024 0.087-0.056 0.162-0.096 0.232l0.003-0.005c-0.037 0.070-0.087 0.124-0.152 0.162-0.063 0.040-0.144 0.058-0.243 0.052-0.106-0.006-0.197-0.041-0.272-0.106-0.073-0.062-0.128-0.151-0.165-0.267-0.035-0.113-0.048-0.25-0.039-0.409zM30.209 19.497c-0.031 0.145-0.086 0.265-0.166 0.362-0.077 0.097-0.182 0.169-0.302 0.203l-0.004 0.001c-0.127 0.039-0.276 0.040-0.448 0.003l-1.035-0.222 0.052-0.241 1.011 0.217c0.188 0.040 0.339 0.023 0.455-0.051 0.117-0.072 0.194-0.193 0.23-0.362 0.027-0.127 0.025-0.243-0.007-0.349s-0.092-0.197-0.173-0.264l-0.001-0.001c-0.084-0.070-0.194-0.12-0.33-0.149l-0.936-0.201 0.052-0.241 2.517 0.54-0.052 0.241-1.225-0.263 0.102-0.028c0.114 0.082 0.199 0.197 0.242 0.332l0.001 0.005c0.048 0.141 0.054 0.297 0.017 0.469zM27.766 21.145c0.067-0.163 0.163-0.295 0.289-0.395 0.119-0.093 0.266-0.157 0.425-0.18l0.005-0.001c0.161-0.021 0.325 0.002 0.492 0.071 0.169 0.069 0.302 0.168 0.4 0.295s0.157 0.27 0.177 0.429c0.020 0.158-0.004 0.32-0.071 0.485-0.068 0.167-0.165 0.3-0.291 0.398-0.117 0.096-0.263 0.161-0.423 0.181l-0.004 0c-0.159 0.022-0.323-0.001-0.492-0.071-0.167-0.068-0.3-0.167-0.4-0.295-0.095-0.119-0.159-0.265-0.18-0.426l-0-0.004c-0.019-0.16 0.005-0.323 0.072-0.488zM27.969 21.228c-0.050 0.122-0.067 0.241-0.053 0.357 0.017 0.117 0.064 0.222 0.14 0.316 0.078 0.097 0.182 0.172 0.312 0.226 0.133 0.054 0.26 0.074 0.381 0.059 0.122-0.012 0.231-0.059 0.32-0.129l-0.001 0.001c0.094-0.071 0.166-0.167 0.215-0.287s0.065-0.238 0.048-0.355c-0.016-0.122-0.065-0.23-0.137-0.319l0.001 0.001c-0.076-0.096-0.18-0.171-0.312-0.226-0.131-0.054-0.258-0.073-0.381-0.059s-0.233 0.061-0.325 0.131l0.002-0.001c-0.093 0.074-0.165 0.17-0.209 0.28l-0.002 0.005zM26.715 23.19c0.084-0.133 0.19-0.234 0.319-0.303 0.109-0.058 0.239-0.091 0.376-0.091 0.019 0 0.038 0.001 0.056 0.002l-0.003-0c0.157 0.011 0.32 0.070 0.488 0.176s0.29 0.227 0.366 0.362c0.078 0.137 0.113 0.278 0.106 0.424s-0.053 0.286-0.139 0.421c-0.093 0.147-0.209 0.257-0.348 0.33-0.115 0.065-0.252 0.103-0.399 0.103-0.018 0-0.036-0.001-0.053-0.002l0.002 0c-0.159-0.008-0.316-0.060-0.471-0.158-0.157-0.099-0.272-0.218-0.348-0.359-0.065-0.117-0.103-0.257-0.103-0.405 0-0.016 0-0.031 0.001-0.046l-0 0.002c0.006-0.157 0.056-0.31 0.148-0.456zM26.662 22.045l2.11 1.331-0.126 0.2-0.464-0.293-0.295-0.215-0.33-0.167-1.027-0.648 0.132-0.208zM26.909 23.292c-0.069 0.11-0.106 0.223-0.112 0.34-0 0.006-0 0.013-0 0.019 0 0.117 0.030 0.227 0.084 0.323l-0.002-0.003c0.060 0.109 0.149 0.201 0.269 0.276s0.24 0.116 0.362 0.122c0.011 0.001 0.025 0.001 0.038 0.001 0.111 0 0.215-0.027 0.307-0.075l-0.004 0.002c0.105-0.054 0.192-0.136 0.261-0.245 0.064-0.097 0.105-0.216 0.111-0.343l0-0.002c0-0.006 0-0.013 0-0.020 0-0.117-0.030-0.227-0.084-0.322l0.002 0.003c-0.059-0.106-0.148-0.196-0.268-0.272s-0.24-0.117-0.363-0.127c-0.011-0.001-0.024-0.001-0.038-0.001-0.111 0-0.215 0.027-0.307 0.075l0.004-0.002c-0.108 0.061-0.196 0.145-0.259 0.247l-0.002 0.003zM25.988 26.966c-0.107 0.102-0.221 0.17-0.342 0.205-0.053 0.017-0.114 0.027-0.177 0.027-0.068 0-0.134-0.012-0.195-0.033l0.004 0.001c-0.127-0.039-0.25-0.123-0.372-0.25l-0.729-0.767 0.178-0.17 0.712 0.749c0.132 0.139 0.267 0.21 0.404 0.214 0.137 0.007 0.269-0.050 0.395-0.169 0.094-0.089 0.158-0.187 0.191-0.292 0.034-0.102 0.036-0.208 0.006-0.317-0.030-0.105-0.093-0.208-0.188-0.309l-0.66-0.694 0.178-0.17 1.255 1.32-0.171 0.163-0.344-0.362 0.092 0.041c0.025 0.067 0.040 0.144 0.040 0.225 0 0.068-0.010 0.133-0.030 0.195l0.001-0.005c-0.040 0.143-0.123 0.275-0.251 0.396zM23.062 26.937c0.146-0.098 0.3-0.153 0.461-0.166 0.017-0.001 0.038-0.002 0.058-0.002 0.145 0 0.283 0.034 0.404 0.095l-0.005-0.002c0.146 0.072 0.269 0.184 0.369 0.334 0.101 0.152 0.157 0.308 0.167 0.469 0.001 0.017 0.002 0.038 0.002 0.058 0 0.144-0.035 0.281-0.097 0.401l0.002-0.005c-0.072 0.142-0.182 0.263-0.33 0.362-0.15 0.1-0.305 0.156-0.464 0.168-0.022 0.002-0.047 0.003-0.073 0.003-0.139 0-0.271-0.034-0.387-0.094l0.005 0.002c-0.145-0.071-0.267-0.182-0.369-0.334-0.1-0.15-0.156-0.306-0.167-0.469-0.002-0.020-0.002-0.042-0.002-0.066 0-0.143 0.035-0.278 0.096-0.396l-0.002 0.005c0.074-0.144 0.185-0.265 0.333-0.364zM23.183 27.119c-0.11 0.073-0.191 0.162-0.243 0.267-0.040 0.081-0.064 0.177-0.064 0.277 0 0.022 0.001 0.044 0.003 0.066l-0-0.003c0.010 0.124 0.055 0.244 0.133 0.362 0.080 0.119 0.174 0.206 0.283 0.262 0.084 0.046 0.184 0.074 0.291 0.074 0.016 0 0.031-0.001 0.047-0.002l-0.002 0c0.118-0.006 0.231-0.046 0.339-0.118s0.187-0.161 0.239-0.268c0.052-0.105 0.074-0.218 0.065-0.34s-0.053-0.242-0.133-0.362c-0.078-0.117-0.173-0.205-0.283-0.262-0.088-0.047-0.193-0.074-0.304-0.074-0.013 0-0.026 0-0.039 0.001l0.002-0c-0.126 0.010-0.24 0.053-0.336 0.12l0.002-0.001zM21.597 27.832l1.332 1.42-0.218 0.090-1.224-1.322 0.099-0.041 0.054 1.807-0.195 0.081-1.234-1.318 0.099-0.041 0.060 1.804-0.208 0.086-0.059-1.947 0.215-0.089 1.172 1.235-0.067 0.028-0.041-1.703 0.215-0.089zM17.898 28.942c0.065-0.011 0.141-0.017 0.218-0.017 0.075 0 0.15 0.006 0.222 0.017l-0.008-0.001c0.139 0.024 0.251 0.062 0.336 0.115l-0.081 0.209c-0.081-0.044-0.182-0.078-0.303-0.103-0.060-0.011-0.129-0.018-0.2-0.018-0.060 0-0.118 0.005-0.175 0.014l0.006-0.001c-0.172 0.025-0.291 0.070-0.359 0.134-0.067 0.066-0.094 0.144-0.082 0.233 0.010 0.067 0.039 0.115 0.088 0.145 0.047 0.033 0.106 0.053 0.177 0.061 0.072 0.010 0.151 0.016 0.238 0.018s0.174 0.005 0.261 0.011c0.085 0.006 0.165 0.021 0.238 0.046 0.074 0.026 0.137 0.067 0.19 0.123 0.050 0.056 0.083 0.135 0.098 0.238 0.014 0.098 0 0.19-0.044 0.276s-0.115 0.158-0.214 0.217c-0.101 0.062-0.228 0.104-0.381 0.126-0.058 0.009-0.124 0.014-0.191 0.014-0.058 0-0.116-0.004-0.172-0.011l0.007 0.001c-0.121-0.013-0.223-0.038-0.306-0.078l0.078-0.211c0.088 0.043 0.18 0.069 0.274 0.079 0.095 0.012 0.189 0.011 0.28-0.003 0.163-0.024 0.278-0.070 0.348-0.139 0.067-0.066 0.095-0.143 0.082-0.23-0.010-0.069-0.039-0.119-0.086-0.152-0.052-0.033-0.113-0.057-0.179-0.067l-0.003-0c-0.070-0.010-0.152-0.016-0.236-0.018l-0.002-0c-0.087-0.001-0.173-0.006-0.258-0.015-0.088-0.005-0.17-0.021-0.248-0.047l0.007 0.002c-0.075-0.021-0.139-0.061-0.189-0.116l-0-0c-0.052-0.053-0.086-0.129-0.1-0.227-0.015-0.105 0.001-0.201 0.049-0.288 0.046-0.084 0.122-0.156 0.228-0.216 0.104-0.057 0.235-0.098 0.392-0.121zM15.845 30.938c-0.148-0.001-0.277-0.031-0.388-0.090-0.113-0.057-0.203-0.146-0.26-0.256l-0.002-0.003c-0.064-0.116-0.095-0.262-0.094-0.438l0.008-1.058 0.246 0.002-0.008 1.034c-0.001 0.192 0.046 0.337 0.142 0.435 0.094 0.1 0.228 0.151 0.401 0.152 0.13 0.001 0.243-0.025 0.341-0.077 0.095-0.050 0.17-0.125 0.224-0.224 0.052-0.097 0.078-0.215 0.079-0.353l0.007-0.958 0.246 0.002-0.020 2.574-0.246-0.002 0.010-1.252 0.048 0.094c-0.059 0.131-0.156 0.237-0.277 0.305l-0.003 0.002c-0.128 0.075-0.28 0.112-0.455 0.111zM13.76 28.885c0.173 0.032 0.322 0.099 0.446 0.201 0.118 0.101 0.209 0.23 0.263 0.377l0.002 0.006c0.054 0.153 0.065 0.319 0.033 0.496-0.033 0.18-0.102 0.331-0.206 0.453-0.1 0.118-0.23 0.208-0.377 0.26l-0.006 0.002c-0.151 0.052-0.314 0.063-0.489 0.031-0.177-0.033-0.327-0.1-0.45-0.202-0.12-0.098-0.212-0.227-0.264-0.374l-0.002-0.006c-0.055-0.151-0.066-0.317-0.033-0.496 0.033-0.178 0.101-0.328 0.206-0.453 0.1-0.119 0.229-0.211 0.378-0.263l0.006-0.002c0.153-0.052 0.317-0.062 0.492-0.030zM13.72 29.1c-0.13-0.024-0.25-0.016-0.36 0.022-0.113 0.042-0.208 0.112-0.28 0.201l-0.001 0.001c-0.079 0.096-0.131 0.214-0.156 0.353-0.026 0.141-0.019 0.269 0.021 0.385 0.037 0.115 0.103 0.212 0.19 0.285l0.001 0.001c0.089 0.077 0.198 0.128 0.325 0.151s0.247 0.014 0.358-0.026c0.114-0.041 0.21-0.109 0.282-0.198l0.001-0.001c0.078-0.094 0.13-0.211 0.156-0.352 0.025-0.139 0.018-0.267-0.021-0.385-0.040-0.116-0.107-0.213-0.193-0.289l-0.001-0.001c-0.089-0.074-0.198-0.126-0.318-0.146l-0.004-0.001zM11.544 28.277c0.147 0.055 0.268 0.138 0.363 0.249 0.094 0.114 0.152 0.248 0.176 0.402 0.021 0.156-0.003 0.327-0.072 0.514s-0.162 0.331-0.279 0.433c-0.118 0.104-0.249 0.168-0.393 0.191s-0.291 0.007-0.441-0.049c-0.163-0.060-0.294-0.151-0.395-0.272-0.099-0.114-0.168-0.257-0.192-0.415l-0.001-0.005c-0.025-0.157-0.007-0.322 0.057-0.493 0.064-0.174 0.158-0.312 0.28-0.414 0.115-0.098 0.257-0.166 0.414-0.192l0.005-0.001c0.155-0.026 0.314-0.009 0.477 0.051zM12.653 27.989l-0.868 2.339-0.221-0.082 0.191-0.514 0.149-0.333 0.095-0.357 0.422-1.139 0.231 0.086zM11.484 28.488c-0.121-0.045-0.24-0.058-0.356-0.040-0.122 0.023-0.228 0.075-0.315 0.151l0.001-0.001c-0.094 0.081-0.166 0.188-0.215 0.32s-0.064 0.259-0.044 0.38c0.019 0.121 0.066 0.227 0.141 0.319s0.173 0.16 0.294 0.205c0.121 0.045 0.241 0.057 0.36 0.037 0.122-0.023 0.228-0.075 0.315-0.151l-0.001 0.001c0.091-0.080 0.161-0.186 0.21-0.318s0.066-0.259 0.049-0.381c-0.019-0.122-0.069-0.231-0.142-0.32l0.001 0.001c-0.079-0.091-0.179-0.16-0.293-0.202l-0.005-0.002zM7.697 28.335c-0.122-0.084-0.212-0.182-0.27-0.293-0.047-0.083-0.075-0.182-0.075-0.287 0-0.026 0.002-0.052 0.005-0.077l-0 0.003c0.013-0.132 0.069-0.27 0.17-0.414l0.604-0.869 0.202 0.141-0.59 0.849c-0.109 0.158-0.152 0.304-0.128 0.439 0.021 0.136 0.103 0.253 0.246 0.352 0.106 0.074 0.215 0.117 0.325 0.128 0.018 0.002 0.039 0.003 0.061 0.003 0.092 0 0.178-0.023 0.253-0.063l-0.003 0.001c0.097-0.051 0.185-0.133 0.265-0.247l0.546-0.787 0.202 0.141-1.039 1.496-0.194-0.135 0.285-0.41-0.022 0.099c-0.098 0.062-0.217 0.098-0.344 0.098-0.021 0-0.042-0.001-0.062-0.003l0.003 0c-0.148-0.010-0.294-0.065-0.439-0.165zM7.135 25.469c0.125 0.123 0.21 0.263 0.256 0.418 0.042 0.155 0.043 0.311 0.003 0.466-0.041 0.157-0.125 0.3-0.252 0.429-0.128 0.13-0.27 0.216-0.425 0.258-0.070 0.020-0.151 0.032-0.234 0.032-0.082 0-0.161-0.011-0.236-0.032l0.006 0.001c-0.154-0.041-0.295-0.125-0.421-0.25-0.129-0.127-0.215-0.267-0.258-0.42-0.022-0.072-0.035-0.156-0.035-0.242 0-0.079 0.011-0.155 0.031-0.228l-0.001 0.006c0.040-0.156 0.124-0.299 0.252-0.429 0.127-0.128 0.268-0.215 0.425-0.258 0.072-0.021 0.154-0.034 0.239-0.034 0.081 0 0.159 0.011 0.233 0.032l-0.006-0.001c0.156 0.043 0.297 0.127 0.424 0.252zM6.982 25.624c-0.094-0.093-0.197-0.154-0.31-0.184-0.047-0.012-0.1-0.019-0.156-0.019-0.068 0-0.133 0.011-0.195 0.030l0.005-0.001c-0.119 0.035-0.228 0.103-0.327 0.204-0.101 0.102-0.167 0.212-0.199 0.33-0.016 0.053-0.026 0.113-0.026 0.176 0 0.060 0.008 0.117 0.024 0.172l-0.001-0.004c0.030 0.114 0.092 0.217 0.184 0.308s0.196 0.151 0.31 0.179c0.049 0.014 0.106 0.022 0.164 0.022 0.065 0 0.127-0.010 0.186-0.028l-0.005 0.001c0.118-0.034 0.227-0.101 0.327-0.204 0.099-0.101 0.165-0.211 0.199-0.33 0.032-0.118 0.033-0.234 0.002-0.349-0.036-0.12-0.099-0.222-0.184-0.303l-0-0zM5.965 24.224l-1.116 1.595-0.133-0.195 1.042-1.469 0.061 0.089-1.757 0.424-0.12-0.175 1.037-1.478 0.061 0.089-1.753 0.43-0.127-0.186 1.894-0.458 0.131 0.192-0.967 1.401-0.041-0.060 1.659-0.39 0.131 0.192zM4.116 20.836c0.048 0.124 0.081 0.268 0.090 0.418l0 0.004c0.005 0.141-0.009 0.259-0.043 0.353l-0.221-0.037c0.026-0.089 0.039-0.195 0.038-0.317-0.004-0.131-0.030-0.255-0.074-0.37l0.003 0.008c-0.061-0.163-0.129-0.27-0.205-0.323-0.079-0.052-0.16-0.063-0.245-0.031-0.063 0.023-0.104 0.062-0.123 0.116-0.023 0.053-0.030 0.115-0.024 0.186 0.005 0.072 0.015 0.151 0.032 0.236s0.031 0.171 0.044 0.258c0.012 0.084 0.014 0.165 0.005 0.242-0.011 0.080-0.039 0.152-0.082 0.213l0.001-0.002c-0.044 0.061-0.115 0.109-0.213 0.145-0.093 0.035-0.186 0.040-0.28 0.015s-0.179-0.079-0.257-0.164c-0.081-0.086-0.149-0.201-0.203-0.347-0.039-0.102-0.066-0.221-0.077-0.344l-0-0.005c-0.013-0.121-0.009-0.226 0.013-0.316l0.223 0.032c-0.016 0.059-0.025 0.127-0.025 0.198 0 0.031 0.002 0.061 0.005 0.091l-0-0.004c0.008 0.096 0.029 0.187 0.061 0.274 0.057 0.154 0.126 0.258 0.208 0.312 0.078 0.052 0.159 0.063 0.241 0.033 0.065-0.024 0.109-0.063 0.131-0.115 0.022-0.055 0.031-0.119 0.029-0.192-0.007-0.089-0.018-0.17-0.034-0.249l0.002 0.013c-0.014-0.066-0.028-0.153-0.038-0.241l-0.001-0.014c-0.007-0.044-0.011-0.095-0.011-0.146 0-0.035 0.002-0.069 0.005-0.103l-0 0.004c0.005-0.079 0.030-0.148 0.074-0.209 0.041-0.062 0.108-0.11 0.202-0.145 0.048-0.020 0.104-0.031 0.163-0.031 0.046 0 0.090 0.007 0.132 0.020l-0.003-0.001c0.092 0.028 0.178 0.087 0.258 0.178 0.078 0.090 0.144 0.209 0.2 0.359zM1.748 19.281c-0.029-0.145-0.027-0.278 0.008-0.398 0.033-0.125 0.104-0.231 0.198-0.309l0.001-0.001c0.1-0.087 0.237-0.147 0.409-0.182l1.037-0.21 0.049 0.242-1.013 0.205c-0.188 0.038-0.32 0.114-0.396 0.229-0.079 0.113-0.101 0.254-0.066 0.424 0.026 0.127 0.074 0.233 0.146 0.317 0.069 0.083 0.157 0.141 0.265 0.173 0.105 0.031 0.226 0.032 0.362 0.005l0.939-0.19 0.049 0.242-2.523 0.511-0.049-0.242 1.228-0.249-0.082 0.066c-0.144-0.031-0.267-0.106-0.357-0.21l-0.001-0.001c-0.1-0.11-0.168-0.25-0.202-0.423zM3.326 16.821c0.005 0.176-0.030 0.335-0.105 0.478-0.077 0.14-0.186 0.255-0.317 0.336l-0.004 0.002c-0.139 0.085-0.298 0.13-0.479 0.134-0.183 0.005-0.344-0.031-0.485-0.108-0.14-0.076-0.253-0.185-0.333-0.317l-0.002-0.004c-0.083-0.137-0.126-0.294-0.131-0.472-0.005-0.18 0.030-0.341 0.105-0.482 0.074-0.142 0.182-0.256 0.313-0.336l0.004-0.002c0.137-0.085 0.296-0.13 0.479-0.134 0.18-0.005 0.342 0.031 0.485 0.108 0.141 0.076 0.256 0.185 0.336 0.317l0.002 0.004c0.082 0.139 0.126 0.297 0.131 0.475zM3.108 16.827c-0.003-0.132-0.036-0.248-0.096-0.348-0.063-0.1-0.15-0.179-0.253-0.231l-0.004-0.002c-0.11-0.057-0.236-0.084-0.377-0.080-0.143 0.004-0.267 0.037-0.372 0.1-0.105 0.061-0.185 0.143-0.24 0.246-0.057 0.104-0.084 0.22-0.081 0.349s0.037 0.244 0.1 0.344c0.061 0.1 0.145 0.179 0.253 0.236s0.234 0.084 0.377 0.080c0.141-0.004 0.265-0.037 0.372-0.1 0.102-0.061 0.185-0.145 0.241-0.246l0.002-0.003c0.055-0.103 0.081-0.219 0.078-0.346zM3.46 14.509c-0.023 0.156-0.079 0.291-0.169 0.407-0.092 0.114-0.213 0.202-0.351 0.254l-0.006 0.002c-0.148 0.053-0.321 0.065-0.517 0.036s-0.357-0.090-0.482-0.183c-0.127-0.094-0.216-0.208-0.268-0.345s-0.067-0.283-0.044-0.441c0.025-0.172 0.087-0.319 0.184-0.443 0.094-0.123 0.219-0.218 0.365-0.273l0.006-0.002c0.149-0.058 0.314-0.073 0.494-0.047 0.183 0.027 0.338 0.089 0.463 0.188 0.122 0.095 0.217 0.22 0.273 0.364l0.002 0.006c0.058 0.146 0.074 0.306 0.049 0.477zM3.972 15.535l-2.468-0.363 0.034-0.233 0.542 0.080 0.357 0.077 0.369 0.019 1.202 0.177-0.036 0.244zM3.241 14.494c0.019-0.128 0.007-0.247-0.035-0.356-0.046-0.112-0.119-0.205-0.21-0.275l-0.002-0.001c-0.099-0.075-0.218-0.123-0.358-0.144s-0.267-0.009-0.381 0.035c-0.114 0.044-0.208 0.112-0.283 0.204s-0.121 0.202-0.14 0.33c-0.006 0.033-0.009 0.071-0.009 0.11 0 0.090 0.017 0.176 0.049 0.254l-0.002-0.005c0.046 0.112 0.119 0.205 0.21 0.275l0.002 0.001c0.097 0.073 0.215 0.12 0.355 0.14s0.267 0.010 0.383-0.031c0.114-0.043 0.209-0.114 0.282-0.203l0.001-0.001c0.071-0.093 0.12-0.207 0.137-0.33l0-0.004zM2.613 10.728c0.058-0.136 0.135-0.244 0.231-0.324 0.091-0.080 0.208-0.132 0.337-0.143l0.002-0c0.132-0.015 0.279 0.012 0.44 0.081l0.975 0.412-0.096 0.227-0.952-0.403c-0.177-0.075-0.329-0.086-0.456-0.035-0.129 0.049-0.227 0.153-0.294 0.313-0.050 0.119-0.070 0.234-0.059 0.344 0.010 0.107 0.050 0.205 0.121 0.292 0.070 0.085 0.168 0.154 0.296 0.208l0.882 0.373-0.096 0.227-1.678-0.709 0.092-0.217 0.46 0.195-0.101-0.001c-0.095-0.099-0.159-0.229-0.176-0.373l-0-0.003c-0.021-0.147 0.003-0.301 0.072-0.463zM5.302 9.592c-0.095 0.147-0.215 0.259-0.357 0.335-0.119 0.062-0.261 0.099-0.41 0.099-0.016 0-0.032-0-0.048-0.001l0.002 0c-0.162-0.009-0.319-0.062-0.471-0.16-0.153-0.099-0.266-0.22-0.339-0.364-0.061-0.116-0.097-0.254-0.097-0.399 0-0.019 0.001-0.038 0.002-0.057l-0 0.003c0.009-0.159 0.062-0.314 0.159-0.463 0.098-0.152 0.218-0.264 0.359-0.338 0.116-0.064 0.254-0.101 0.401-0.101 0.018 0 0.037 0.001 0.055 0.002l-0.002-0c0.16 0.007 0.317 0.061 0.471 0.16 0.152 0.098 0.264 0.219 0.339 0.364 0.063 0.117 0.099 0.256 0.099 0.403 0 0.019-0.001 0.037-0.002 0.055l0-0.002c-0.011 0.161-0.064 0.317-0.161 0.466zM5.119 9.474c0.072-0.111 0.111-0.225 0.117-0.341 0-0.008 0.001-0.017 0.001-0.027 0-0.114-0.030-0.221-0.082-0.313l0.002 0.003c-0.059-0.11-0.147-0.203-0.266-0.279-0.12-0.078-0.242-0.12-0.364-0.128-0.016-0.001-0.034-0.002-0.053-0.002-0.104 0-0.202 0.026-0.288 0.071l0.003-0.002c-0.106 0.053-0.194 0.133-0.264 0.242s-0.108 0.222-0.113 0.34c-0.007 0.117 0.018 0.229 0.075 0.338s0.145 0.201 0.266 0.279c0.119 0.077 0.24 0.119 0.364 0.128 0.013 0.001 0.029 0.002 0.045 0.002 0.108 0 0.21-0.026 0.3-0.072l-0.004 0.002c0.104-0.054 0.19-0.134 0.259-0.241zM6.277 8.194l-1.788-0.77 0.164-0.17 1.65 0.723-0.075 0.078-0.771-1.635 0.147-0.152 1.657 0.716-0.075 0.077-0.776-1.63 0.157-0.162 0.832 1.761-0.161 0.167-1.568-0.664 0.051-0.052 0.718 1.545-0.161 0.167zM9.187 5.707c-0.113 0.074-0.244 0.133-0.384 0.173l-0.010 0.002c-0.137 0.034-0.255 0.045-0.354 0.030l-0.010-0.224c0.092 0.008 0.198-0.002 0.318-0.029 0.129-0.032 0.242-0.081 0.344-0.147l-0.004 0.003c0.146-0.093 0.238-0.182 0.274-0.267 0.035-0.088 0.028-0.17-0.020-0.246-0.036-0.057-0.082-0.089-0.139-0.097-0.056-0.011-0.119-0.006-0.187 0.016-0.070 0.019-0.145 0.046-0.225 0.080s-0.161 0.066-0.243 0.096c-0.080 0.029-0.159 0.047-0.236 0.055-0.011 0.001-0.025 0.002-0.038 0.002-0.067 0-0.13-0.014-0.188-0.038l0.003 0.001c-0.068-0.031-0.13-0.090-0.186-0.178-0.046-0.069-0.073-0.154-0.073-0.246 0-0.009 0-0.017 0.001-0.026l-0 0.001c0.005-0.096 0.040-0.191 0.107-0.285 0.067-0.097 0.166-0.187 0.297-0.27 0.094-0.060 0.201-0.11 0.316-0.145l0.009-0.002c0.116-0.038 0.22-0.055 0.311-0.053l0.015 0.225c-0.010-0-0.022-0.001-0.034-0.001-0.089 0-0.175 0.015-0.255 0.041l0.006-0.002c-0.097 0.030-0.182 0.069-0.259 0.118l0.004-0.003c-0.139 0.088-0.226 0.177-0.262 0.268-0.035 0.088-0.029 0.169 0.018 0.243 0.037 0.059 0.084 0.093 0.14 0.105 0.058 0.010 0.123 0.006 0.194-0.012 0.072-0.021 0.146-0.047 0.224-0.080 0.080-0.034 0.161-0.064 0.242-0.091 0.082-0.030 0.162-0.049 0.239-0.057 0.018-0.003 0.038-0.004 0.059-0.004 0.058 0 0.113 0.013 0.163 0.035l-0.002-0.001c0.069 0.027 0.13 0.083 0.184 0.167 0.057 0.090 0.081 0.184 0.072 0.283-0.008 0.095-0.048 0.192-0.121 0.29-0.072 0.094-0.175 0.184-0.31 0.269zM10.256 3.047c0.136-0.059 0.266-0.083 0.391-0.074 0.131 0.006 0.25 0.055 0.345 0.132l-0.001-0.001c0.105 0.081 0.193 0.202 0.262 0.363l0.42 0.972-0.226 0.098-0.41-0.949c-0.076-0.176-0.178-0.29-0.306-0.34-0.126-0.054-0.27-0.046-0.429 0.023-0.119 0.051-0.212 0.121-0.28 0.208-0.065 0.081-0.106 0.182-0.114 0.293l-0 0.002c-0.008 0.109 0.015 0.228 0.070 0.355l0.38 0.879-0.226 0.098-1.021-2.364 0.226-0.098 0.497 1.15-0.082-0.067c0-0.149 0.050-0.285 0.134-0.395l-0.001 0.002c0.087-0.12 0.21-0.216 0.372-0.285zM12.951 4.092c-0.171 0.041-0.334 0.039-0.49-0.004-0.157-0.048-0.291-0.132-0.397-0.244l-0-0c-0.112-0.119-0.188-0.265-0.23-0.441-0.042-0.178-0.040-0.344 0.006-0.497 0.047-0.156 0.132-0.289 0.244-0.393l0.001-0.001c0.117-0.109 0.262-0.184 0.435-0.225 0.175-0.042 0.34-0.040 0.493 0.004 0.158 0.044 0.292 0.128 0.396 0.24l0.001 0.001c0.111 0.116 0.188 0.263 0.23 0.441 0.042 0.175 0.040 0.341-0.006 0.497-0.046 0.158-0.131 0.292-0.243 0.397l-0.001 0.001c-0.119 0.109-0.265 0.185-0.438 0.226zM12.9 3.88c0.128-0.031 0.235-0.086 0.321-0.166 0.082-0.079 0.144-0.181 0.174-0.294l0.001-0.004c0.033-0.12 0.034-0.248 0.001-0.385-0.033-0.14-0.092-0.254-0.175-0.344-0.076-0.086-0.174-0.15-0.286-0.183l-0.004-0.001c-0.113-0.035-0.232-0.037-0.359-0.007s-0.231 0.086-0.316 0.168c-0.084 0.078-0.146 0.179-0.178 0.292l-0.001 0.005c-0.034 0.118-0.034 0.246-0.001 0.386 0.033 0.137 0.091 0.252 0.175 0.344 0.083 0.089 0.181 0.152 0.294 0.187 0.112 0.033 0.23 0.034 0.354 0.005zM15.192 3.749c-0.157 0.010-0.301-0.017-0.433-0.081-0.135-0.069-0.244-0.17-0.322-0.293l-0.002-0.003c-0.082-0.134-0.13-0.3-0.142-0.499s0.014-0.368 0.080-0.509c0.065-0.143 0.159-0.254 0.282-0.334s0.264-0.124 0.423-0.134c0.173-0.011 0.33 0.019 0.471 0.089 0.143 0.067 0.258 0.169 0.346 0.305 0.087 0.134 0.136 0.292 0.148 0.474 0.011 0.185-0.018 0.349-0.088 0.492s-0.174 0.26-0.302 0.344l-0.003 0.002c-0.131 0.087-0.284 0.136-0.457 0.147zM14.294 4.462l-0.154-2.49 0.236-0.015 0.034 0.547-0.002 0.365 0.057 0.365 0.075 1.212-0.246 0.015zM15.161 3.532c0.129-0.008 0.243-0.044 0.341-0.108 0.097-0.067 0.175-0.156 0.225-0.26l0.002-0.004c0.053-0.112 0.076-0.239 0.067-0.38s-0.046-0.262-0.113-0.365c-0.064-0.1-0.151-0.179-0.254-0.233l-0.004-0.002c-0.105-0.054-0.223-0.077-0.352-0.069-0.129 0.006-0.247 0.047-0.347 0.113l0.003-0.002c-0.097 0.067-0.175 0.156-0.225 0.26l-0.002 0.004c-0.051 0.11-0.072 0.235-0.064 0.376s0.045 0.264 0.11 0.369c0.064 0.1 0.151 0.179 0.254 0.233l0.004 0.002c0.088 0.042 0.192 0.067 0.301 0.067 0.019 0 0.038-0.001 0.057-0.002l-0.002 0zM18.801 2.137c0.145 0.028 0.267 0.081 0.365 0.159 0.101 0.076 0.171 0.177 0.21 0.302 0.041 0.126 0.046 0.275 0.012 0.448l-0.202 1.039-0.242-0.047 0.198-1.015c0.037-0.188 0.017-0.34-0.060-0.454-0.074-0.116-0.196-0.19-0.367-0.223-0.127-0.025-0.243-0.020-0.349 0.013s-0.195 0.096-0.26 0.178l-0.001 0.001c-0.068 0.086-0.116 0.197-0.143 0.333l-0.183 0.94-0.242-0.047 0.348-1.788 0.232 0.045-0.095 0.49-0.020-0.099c0.080-0.116 0.194-0.203 0.327-0.249l0.005-0.001c0.14-0.051 0.296-0.059 0.468-0.025zM20.456 4.527c-0.164-0.063-0.298-0.157-0.402-0.28-0.096-0.118-0.163-0.262-0.189-0.421l-0.001-0.005c-0.025-0.161-0.005-0.325 0.060-0.494 0.065-0.171 0.161-0.306 0.286-0.407 0.117-0.096 0.261-0.162 0.42-0.186l0.005-0.001c0.158-0.024 0.32-0.003 0.486 0.060 0.168 0.065 0.303 0.158 0.405 0.281 0.104 0.124 0.167 0.265 0.191 0.423 0.026 0.159 0.006 0.323-0.060 0.494-0.065 0.168-0.16 0.304-0.286 0.407-0.117 0.097-0.262 0.165-0.421 0.189l-0.005 0.001c-0.16 0.023-0.323 0.003-0.489-0.061zM20.535 4.323c0.123 0.047 0.242 0.062 0.358 0.045 0.121-0.021 0.228-0.073 0.314-0.148l-0.001 0.001c0.095-0.080 0.168-0.186 0.219-0.318 0.051-0.134 0.068-0.261 0.050-0.382-0.015-0.121-0.064-0.229-0.136-0.317l0.001 0.001c-0.073-0.093-0.171-0.162-0.292-0.209s-0.24-0.060-0.356-0.040c-0.122 0.019-0.229 0.070-0.316 0.144l0.001-0.001c-0.094 0.078-0.167 0.184-0.218 0.317-0.051 0.132-0.067 0.259-0.050 0.382 0.018 0.121 0.064 0.228 0.137 0.32 0.074 0.090 0.171 0.158 0.29 0.204zM22.066 5.214l0.391-1.907 0.2 0.126-0.374 1.762-0.091-0.057 1.445-1.086 0.179 0.113-0.365 1.768-0.091-0.057 1.439-1.090 0.191 0.12-1.556 1.172-0.197-0.124 0.332-1.67 0.062 0.039-1.368 1.016-0.197-0.124zM25.095 7.565c-0.098-0.101-0.182-0.216-0.248-0.343l-0.004-0.008c-0.061-0.127-0.095-0.241-0.102-0.34l0.217-0.055c0.012 0.092 0.042 0.194 0.093 0.306 0.056 0.117 0.126 0.217 0.211 0.303l-0-0c0.12 0.125 0.226 0.196 0.318 0.214 0.093 0.016 0.172-0.007 0.237-0.069 0.048-0.046 0.070-0.098 0.067-0.156-0.001-0.057-0.018-0.117-0.053-0.18-0.042-0.079-0.083-0.146-0.128-0.209l0.004 0.006c-0.050-0.071-0.097-0.144-0.143-0.219-0.040-0.063-0.074-0.136-0.099-0.213l-0.002-0.007c-0.012-0.040-0.019-0.087-0.019-0.135 0-0.032 0.003-0.064 0.009-0.094l-0 0.003c0.016-0.073 0.061-0.146 0.136-0.218 0.066-0.065 0.152-0.11 0.247-0.125l0.003-0c0.095-0.015 0.195 0.001 0.301 0.047 0.109 0.046 0.217 0.125 0.324 0.237 0.082 0.085 0.152 0.181 0.211 0.288 0.060 0.106 0.099 0.204 0.115 0.294l-0.217 0.060c-0.017-0.101-0.050-0.192-0.098-0.273l0.002 0.004c-0.047-0.086-0.102-0.161-0.166-0.227l0 0c-0.114-0.118-0.219-0.186-0.315-0.202-0.093-0.016-0.171 0.006-0.234 0.067-0.050 0.048-0.075 0.101-0.074 0.158 0.002 0.059 0.019 0.121 0.051 0.187 0.035 0.066 0.076 0.134 0.124 0.204 0.050 0.071 0.096 0.144 0.138 0.218 0.046 0.074 0.081 0.149 0.104 0.223 0.027 0.074 0.032 0.148 0.016 0.221-0.013 0.073-0.055 0.145-0.126 0.214-0.077 0.074-0.164 0.116-0.263 0.128-0.095 0.012-0.198-0.008-0.308-0.060-0.107-0.051-0.216-0.134-0.327-0.249zM27.897 8.046c0.085 0.121 0.136 0.243 0.153 0.367 0.005 0.028 0.008 0.061 0.008 0.094 0 0.098-0.024 0.191-0.067 0.273l0.002-0.003c-0.057 0.12-0.157 0.23-0.301 0.331l-0.865 0.61-0.142-0.201 0.845-0.596c0.157-0.111 0.247-0.234 0.27-0.369 0.027-0.135-0.010-0.273-0.11-0.415-0.075-0.106-0.162-0.183-0.261-0.232-0.096-0.048-0.2-0.065-0.312-0.051-0.109 0.014-0.22 0.062-0.333 0.142l-0.783 0.552-0.142-0.201 2.104-1.484 0.142 0.201-1.024 0.722 0.049-0.094c0.040-0.009 0.086-0.014 0.133-0.014 0.101 0 0.197 0.023 0.283 0.064l-0.004-0.002c0.136 0.060 0.254 0.162 0.355 0.306zM27.442 10.925c-0.075-0.159-0.107-0.319-0.096-0.48 0.014-0.16 0.066-0.306 0.157-0.439 0.093-0.133 0.221-0.239 0.384-0.316 0.165-0.078 0.328-0.11 0.488-0.096 0.165 0.014 0.314 0.071 0.439 0.161l-0.003-0.002c0.13 0.092 0.233 0.218 0.31 0.38 0.077 0.163 0.11 0.324 0.098 0.483-0.010 0.165-0.066 0.315-0.156 0.44l0.002-0.003c-0.091 0.132-0.219 0.238-0.384 0.316-0.163 0.077-0.326 0.109-0.488 0.096-0.166-0.012-0.316-0.069-0.441-0.159l0.003 0.002c-0.131-0.094-0.235-0.222-0.311-0.383zM27.64 10.832c0.056 0.119 0.132 0.212 0.228 0.28 0.092 0.064 0.205 0.104 0.327 0.11l0.002 0c0.124 0.008 0.25-0.018 0.377-0.078 0.13-0.061 0.23-0.142 0.301-0.242 0.067-0.089 0.111-0.199 0.12-0.319l0-0.002c0.011-0.118-0.011-0.235-0.067-0.352s-0.132-0.209-0.23-0.275c-0.091-0.065-0.203-0.106-0.325-0.114l-0.002-0c-0.122-0.009-0.248 0.017-0.377 0.078-0.128 0.060-0.228 0.141-0.3 0.242-0.066 0.091-0.11 0.203-0.122 0.323l-0 0.003c-0.001 0.014-0.002 0.030-0.002 0.047 0 0.11 0.026 0.213 0.072 0.305l-0.002-0.004zM28.235 13.050c-0.042-0.152-0.045-0.298-0.009-0.44 0.041-0.149 0.119-0.277 0.223-0.378l0-0c0.114-0.108 0.267-0.189 0.459-0.242s0.363-0.062 0.515-0.026c0.153 0.034 0.282 0.104 0.384 0.207s0.176 0.232 0.218 0.386c0.046 0.167 0.049 0.327 0.010 0.48-0.038 0.159-0.118 0.295-0.228 0.401l-0 0c-0.113 0.113-0.258 0.193-0.434 0.242-0.178 0.049-0.345 0.054-0.5 0.015-0.158-0.040-0.294-0.12-0.401-0.228l-0-0c-0.112-0.111-0.191-0.25-0.237-0.417zM27.353 12.317l2.406-0.662 0.062 0.227-0.529 0.145-0.358 0.073-0.345 0.131-1.171 0.322-0.065-0.238zM28.441 12.975c0.034 0.125 0.093 0.229 0.176 0.312 0.085 0.082 0.187 0.138 0.305 0.168 0.121 0.029 0.249 0.025 0.385-0.012s0.248-0.099 0.334-0.185c0.087-0.086 0.146-0.186 0.177-0.3s0.029-0.234-0.005-0.359c-0.033-0.124-0.095-0.23-0.18-0.314v0c-0.082-0.080-0.186-0.138-0.301-0.167l-0.005-0.001c-0.118-0.028-0.245-0.023-0.381 0.015s-0.249 0.098-0.338 0.183c-0.087 0.086-0.146 0.186-0.177 0.3-0.028 0.116-0.025 0.236 0.009 0.361z"></path>
</symbol>
<symbol id="icon-facebook" viewBox="0 0 32 32">
<path  d="M24 2.666h-4c-3.682 0-6.666 2.985-6.666 6.666 0 0 0 0.001 0 0.001v-0 4h-4v5.333h4v10.667h5.334v-10.667h4l1.333-5.333h-5.333v-4c0-0.736 0.596-1.333 1.332-1.334h4v-5.334z"></path>
</symbol>
<symbol id="icon-header-tel" viewBox="0 0 32 32">
<path d="M26.331 6.267l-3.346-3.344c-0.392-0.394-0.934-0.638-1.534-0.638s-1.142 0.244-1.534 0.638l-0 0-3.606 3.599c-0.394 0.393-0.638 0.936-0.638 1.537s0.244 1.144 0.638 1.537l2.816 2.818c-0.677 1.554-1.592 2.881-2.715 4l-0 0c-1.119 1.125-2.444 2.042-3.916 2.69l-0.082 0.032-2.815-2.819c-0.392-0.394-0.934-0.638-1.534-0.638s-1.142 0.244-1.534 0.638l-0 0-3.608 3.599c-0.394 0.393-0.638 0.936-0.638 1.537s0.244 1.144 0.638 1.537l3.344 3.343c0.697 0.697 1.659 1.097 2.647 1.097 0.205 0 0.402-0.016 0.603-0.050 4.16-0.686 8.29-2.901 11.625-6.232 3.331-3.337 5.544-7.466 6.235-11.63 0.031-0.181 0.049-0.389 0.049-0.602 0-1.034-0.419-1.97-1.096-2.647l0 0zM25.15 9.143c-0.613 3.705-2.606 7.4-5.607 10.401s-6.694 4.994-10.4 5.606c-0.071 0.012-0.152 0.019-0.235 0.019-0.409 0-0.778-0.166-1.046-0.434l-3.285-3.283 3.482-3.486 3.793 3.8 0.679-0.251c4.177-1.566 7.414-4.803 8.945-8.876l0.034-0.104 0.251-0.679-3.797-3.794 3.482-3.483 3.285 3.283c0.339 0.339 0.496 0.817 0.417 1.282z"></path>
</symbol>
<symbol id="icon-instagram" viewBox="0 0 32 32">
<path  d="M22.666 2.666h-13.334c-3.682 0-6.666 2.985-6.666 6.666 0 0 0 0.001 0 0.001v-0 13.333c0 0 0 0.001 0 0.001 0 3.682 2.985 6.666 6.666 6.666h13.334c3.682 0 6.666-2.985 6.666-6.666 0-0 0-0.001 0-0.001v0-13.333c0-0 0-0.001 0-0.001 0-3.682-2.985-6.666-6.666-6.666v0z"></path>
<path  d="M21.334 15.16c0.038 0.241 0.061 0.518 0.061 0.801 0 2.946-2.388 5.334-5.334 5.334-2.676 0-4.892-1.971-5.275-4.541l-0.004-0.029c-0.035-0.229-0.055-0.494-0.055-0.764 0-2.946 2.388-5.334 5.334-5.334 2.663 0 4.87 1.952 5.269 4.503l0.004 0.030zM23.334 8.666h0.013"></path>
</symbol>
<symbol id="icon-logodesktop" viewBox="0 0 40 32">
<path d="M16.463 31.448v-5.12l-0.132-0.839v-8.563c0-1.971-0.559-3.487-1.677-4.546-1.089-1.059-2.722-1.589-4.899-1.589-1.501 0-2.928 0.25-4.281 0.75s-2.501 1.162-3.443 1.986l-1.412-2.339c1.177-1 2.589-1.766 4.237-2.295 1.648-0.559 3.384-0.839 5.208-0.839 3.001 0 5.311 0.75 6.93 2.251 1.648 1.471 2.472 3.722 2.472 6.753v14.389h-3.001zM8.474 31.669c-1.736 0-3.251-0.28-4.546-0.839-1.265-0.589-2.236-1.383-2.913-2.383-0.677-1.030-1.015-2.207-1.015-3.531 0-1.207 0.28-2.295 0.839-3.266 0.589-1 1.53-1.795 2.825-2.383 1.324-0.618 3.090-0.927 5.297-0.927h7.989v2.339h-7.901c-2.236 0-3.796 0.397-4.679 1.192-0.854 0.794-1.28 1.78-1.28 2.957 0 1.324 0.515 2.383 1.545 3.178s2.472 1.192 4.326 1.192c1.766 0 3.281-0.397 4.546-1.192 1.295-0.824 2.236-2.001 2.825-3.531l0.706 2.163c-0.589 1.53-1.618 2.751-3.090 3.663-1.442 0.912-3.266 1.368-5.473 1.368z"></path>
<path d="M29.44 31.669c-2.413 0-4.532-0.5-6.356-1.501-1.825-1.030-3.252-2.428-4.281-4.193-1.030-1.795-1.545-3.84-1.545-6.135s0.486-4.326 1.457-6.091c1-1.766 2.354-3.149 4.061-4.149 1.736-1.030 3.678-1.545 5.826-1.545 2.177 0 4.105 0.5 5.782 1.501 1.706 0.971 3.046 2.354 4.017 4.149 0.971 1.766 1.457 3.811 1.457 6.135 0 0.147-0.015 0.309-0.044 0.486v0.486h-20.171v-2.339h18.494l-1.236 0.927c0-1.677-0.368-3.163-1.103-4.458-0.706-1.324-1.677-2.354-2.913-3.090s-2.663-1.103-4.281-1.103c-1.589 0-3.016 0.368-4.281 1.103s-2.251 1.766-2.957 3.090-1.059 2.84-1.059 4.546v0.486c0 1.766 0.382 3.325 1.148 4.679 0.794 1.324 1.883 2.369 3.266 3.134 1.412 0.735 3.016 1.103 4.811 1.103 1.412 0 2.722-0.25 3.928-0.75 1.236-0.5 2.295-1.265 3.178-2.295l1.766 2.030c-1.030 1.236-2.325 2.178-3.884 2.825-1.53 0.647-3.222 0.971-5.076 0.971z"></path>
<path d="M37.297 3.31h-15.448v-3.31h15.448v3.31z"></path>
</symbol>
<symbol id="icon-mobile-arrow-btn" viewBox="0 0 29 32">
<path d="M19.851 13.314c0.002-0.010 0.003-0.021 0.003-0.033 0-0.105-0.076-0.191-0.176-0.208l-0.001-0-1.872-0.296c-0.010-0.002-0.021-0.003-0.033-0.003-0.116 0-0.211 0.094-0.211 0.211 0 0.105 0.076 0.192 0.177 0.208l0.001 0 1.663 0.264-0.263 1.663c-0.001 0.008-0.002 0.017-0.002 0.026 0 0.116 0.094 0.211 0.211 0.211 0.102 0 0.187-0.073 0.206-0.169l0-0.001 0.296-1.872zM10.229 20.381l9.538-6.93-0.247-0.341-9.538 6.93 0.248 0.341zM24.701 17.053c0.027-0.236 0.084-0.455 0.173-0.658 0.093-0.203 0.197-0.358 0.312-0.467l0.285 0.208c-0.109 0.121-0.202 0.26-0.274 0.41l-0.004 0.010c-0.078 0.163-0.134 0.353-0.156 0.553l-0.001 0.008c-0.031 0.272-0.011 0.472 0.059 0.601 0.073 0.13 0.181 0.202 0.322 0.218 0.105 0.012 0.191-0.013 0.257-0.076 0.069-0.059 0.124-0.141 0.165-0.246 0.045-0.105 0.086-0.223 0.123-0.355s0.077-0.263 0.121-0.394c0.045-0.132 0.101-0.246 0.169-0.351l-0.004 0.006c0.070-0.102 0.158-0.182 0.264-0.24 0.105-0.055 0.24-0.072 0.403-0.054 0.156 0.018 0.291 0.077 0.404 0.178s0.195 0.238 0.245 0.413c0.053 0.179 0.067 0.389 0.039 0.632-0.021 0.185-0.067 0.367-0.139 0.546-0.067 0.18-0.148 0.325-0.242 0.436l-0.291-0.203c0.101-0.117 0.178-0.246 0.231-0.387 0.056-0.141 0.093-0.283 0.109-0.428 0.029-0.258 0.005-0.453-0.072-0.587-0.074-0.129-0.179-0.202-0.317-0.217-0.109-0.012-0.197 0.011-0.267 0.069-0.074 0.069-0.134 0.152-0.175 0.245l-0.002 0.005c-0.045 0.109-0.086 0.227-0.123 0.355-0.037 0.132-0.079 0.261-0.126 0.388-0.045 0.134-0.101 0.25-0.17 0.356l0.004-0.006c-0.060 0.103-0.146 0.186-0.249 0.24l-0.003 0.002c-0.102 0.059-0.232 0.079-0.387 0.061-0.164-0.015-0.309-0.085-0.42-0.191l0 0c-0.109-0.104-0.189-0.248-0.237-0.434-0.045-0.182-0.054-0.397-0.026-0.648zM26.672 21.102c-0.087 0.216-0.205 0.389-0.356 0.518-0.142 0.129-0.325 0.214-0.527 0.235l-0.004 0c-0.208 0.027-0.44-0.011-0.698-0.114l-1.55-0.62 0.145-0.36 1.515 0.605c0.281 0.112 0.522 0.126 0.721 0.040 0.202-0.080 0.354-0.248 0.456-0.501 0.076-0.189 0.104-0.371 0.083-0.544-0.020-0.177-0.092-0.333-0.2-0.458l0.001 0.001c-0.112-0.132-0.27-0.238-0.474-0.319l-1.403-0.561 0.145-0.36 3.771 1.507-0.145 0.361-1.835-0.733 0.166-0.016c0.159 0.162 0.255 0.358 0.289 0.587 0.037 0.231 0.003 0.475-0.1 0.732zM22.514 22.446c0.176-0.215 0.382-0.369 0.619-0.463 0.15-0.059 0.325-0.093 0.507-0.093 0.080 0 0.158 0.007 0.234 0.019l-0.008-0.001c0.254 0.041 0.491 0.152 0.712 0.331 0.224 0.182 0.38 0.392 0.469 0.628s0.112 0.479 0.070 0.727c-0.042 0.248-0.152 0.48-0.33 0.698-0.18 0.22-0.387 0.376-0.622 0.467-0.149 0.062-0.321 0.098-0.502 0.098-0.080 0-0.158-0.007-0.234-0.020l0.008 0.001c-0.251-0.039-0.488-0.15-0.712-0.331-0.221-0.179-0.377-0.389-0.469-0.628-0.060-0.148-0.094-0.319-0.094-0.498 0-0.082 0.007-0.162 0.021-0.24l-0.001 0.008c0.045-0.251 0.156-0.485 0.333-0.702zM22.782 22.663c-0.132 0.161-0.213 0.333-0.244 0.515-0.007 0.045-0.011 0.098-0.011 0.151 0 0.141 0.029 0.275 0.081 0.396l-0.003-0.006c0.073 0.181 0.196 0.343 0.368 0.483 0.176 0.143 0.359 0.23 0.549 0.262 0.057 0.012 0.122 0.019 0.189 0.019 0.126 0 0.247-0.024 0.358-0.068l-0.007 0.002c0.185-0.071 0.339-0.186 0.455-0.332l0.002-0.002c0.12-0.141 0.203-0.315 0.235-0.508l0.001-0.006c0.031-0.181 0.011-0.362-0.059-0.541s-0.193-0.34-0.369-0.483c-0.173-0.14-0.356-0.227-0.549-0.262-0.056-0.011-0.12-0.017-0.186-0.017-0.13 0-0.255 0.024-0.37 0.067l0.007-0.002c-0.173 0.067-0.323 0.178-0.449 0.333zM19.979 24.742c0.207-0.138 0.425-0.215 0.655-0.232 0.022-0.001 0.048-0.002 0.074-0.002 0.221 0 0.429 0.055 0.611 0.152l-0.007-0.003c0.219 0.117 0.416 0.306 0.591 0.567s0.274 0.513 0.296 0.757c0.005 0.042 0.008 0.090 0.008 0.139 0 0.196-0.047 0.382-0.13 0.545l0.003-0.007c-0.104 0.205-0.261 0.377-0.471 0.517-0.228 0.152-0.466 0.236-0.714 0.252-0.034 0.003-0.074 0.005-0.114 0.005-0.22 0-0.426-0.055-0.608-0.151l0.007 0.003c-0.225-0.113-0.418-0.29-0.579-0.529-0.163-0.243-0.253-0.489-0.272-0.74-0.003-0.032-0.004-0.068-0.004-0.105 0-0.222 0.054-0.431 0.15-0.614l-0.003 0.007c0.11-0.222 0.279-0.409 0.507-0.561zM20.638 23.061l2.19 3.27-0.31 0.206-0.481-0.719-0.288-0.499-0.368-0.452-1.066-1.592 0.323-0.215zM20.194 25.013c-0.161 0.104-0.29 0.245-0.377 0.411l-0.003 0.006c-0.065 0.132-0.103 0.288-0.103 0.453 0 0.031 0.001 0.061 0.004 0.091l-0-0.004c0.017 0.195 0.087 0.385 0.211 0.57s0.272 0.321 0.445 0.408c0.173 0.087 0.352 0.125 0.538 0.115s0.365-0.072 0.535-0.185c0.163-0.106 0.292-0.249 0.379-0.418l0.003-0.006c0.081-0.168 0.114-0.347 0.099-0.539-0.017-0.19-0.088-0.378-0.212-0.563s-0.272-0.323-0.443-0.416c-0.14-0.073-0.305-0.117-0.481-0.117-0.020 0-0.040 0.001-0.060 0.002l0.003-0c-0.187 0.015-0.366 0.079-0.536 0.192zM16.254 29.188c-0.231 0.036-0.44 0.022-0.627-0.041-0.194-0.062-0.356-0.18-0.472-0.334l-0.002-0.003c-0.129-0.164-0.215-0.384-0.257-0.658l-0.257-1.65 0.384-0.059 0.251 1.612c0.046 0.299 0.157 0.513 0.333 0.641 0.172 0.132 0.393 0.177 0.664 0.135 0.202-0.031 0.372-0.1 0.511-0.206 0.135-0.102 0.232-0.237 0.291-0.405 0.056-0.164 0.067-0.354 0.033-0.57l-0.232-1.493 0.384-0.059 0.442 2.839-0.368 0.057-0.121-0.779 0.082 0.137c-0.059 0.223-0.186 0.411-0.356 0.547l-0.002 0.002c-0.179 0.149-0.406 0.246-0.68 0.288zM12.936 26.307c0.273 0.037 0.516 0.141 0.719 0.296l-0.004-0.003c0.198 0.158 0.344 0.355 0.438 0.59 0.094 0.239 0.12 0.499 0.078 0.781-0.042 0.285-0.142 0.527-0.301 0.725s-0.355 0.343-0.589 0.434c-0.235 0.091-0.491 0.116-0.769 0.075-0.282-0.041-0.522-0.139-0.72-0.294-0.196-0.149-0.347-0.347-0.436-0.575l-0.003-0.009c-0.095-0.235-0.12-0.496-0.078-0.781 0.042-0.282 0.142-0.523 0.301-0.725 0.152-0.195 0.352-0.345 0.581-0.436l0.009-0.003c0.238-0.090 0.497-0.115 0.775-0.074zM12.885 26.649c-0.054-0.010-0.117-0.015-0.181-0.015-0.139 0-0.271 0.026-0.393 0.072l0.008-0.003c-0.173 0.071-0.317 0.182-0.431 0.335-0.119 0.156-0.195 0.344-0.227 0.564-0.033 0.224-0.015 0.425 0.054 0.605 0.066 0.179 0.171 0.326 0.317 0.439 0.145 0.117 0.319 0.191 0.521 0.221s0.389 0.009 0.563-0.061c0.172-0.067 0.317-0.177 0.436-0.329s0.194-0.34 0.227-0.564c0.032-0.22 0.014-0.422-0.055-0.605-0.068-0.179-0.179-0.33-0.319-0.444l-0.002-0.002c-0.143-0.111-0.319-0.188-0.51-0.214l-0.006-0.001zM10.539 25.818l-0.419 3.040-0.327-0.177 0.406-2.811 0.149 0.080-2.164 1.861-0.294-0.159 0.392-2.818 0.149 0.080-2.155 1.866-0.313-0.169 2.331-2.007 0.323 0.174-0.35 2.661-0.101-0.055 2.050-1.742 0.323 0.174zM5.941 22.196c0.139 0.192 0.244 0.393 0.315 0.603 0.068 0.212 0.096 0.397 0.083 0.554l-0.352 0.037c-0.001-0.178-0.029-0.349-0.080-0.51l0.003 0.012c-0.063-0.199-0.152-0.371-0.265-0.525l0.003 0.005c-0.16-0.221-0.31-0.357-0.449-0.405-0.142-0.046-0.271-0.028-0.386 0.055-0.086 0.062-0.132 0.138-0.139 0.228-0.002 0.019-0.003 0.041-0.003 0.063 0 0.083 0.017 0.162 0.048 0.234l-0.001-0.004c0.038 0.108 0.087 0.223 0.149 0.345s0.12 0.246 0.175 0.373c0.053 0.124 0.090 0.246 0.11 0.366 0.017 0.123 0.005 0.241-0.034 0.355-0.042 0.111-0.129 0.214-0.262 0.31-0.116 0.086-0.261 0.138-0.419 0.14h-0c-0.152 0.001-0.306-0.045-0.46-0.141-0.16-0.096-0.312-0.243-0.455-0.442-0.104-0.143-0.194-0.307-0.26-0.482l-0.005-0.014c-0.071-0.179-0.109-0.34-0.115-0.484l0.353-0.045c0.004 0.155 0.034 0.301 0.090 0.441 0.053 0.142 0.122 0.272 0.208 0.39 0.152 0.21 0.301 0.339 0.448 0.386 0.141 0.046 0.269 0.029 0.381-0.052 0.089-0.064 0.139-0.141 0.152-0.23 0.009-0.093-0.003-0.194-0.038-0.303-0.051-0.139-0.1-0.253-0.157-0.363l0.008 0.018c-0.048-0.092-0.105-0.214-0.156-0.339l-0.012-0.032c-0.049-0.107-0.089-0.231-0.112-0.361l-0.001-0.009c-0.025-0.122-0.016-0.238 0.025-0.349 0.036-0.112 0.118-0.213 0.245-0.305 0.116-0.088 0.262-0.14 0.421-0.14 0.006 0 0.012 0 0.018 0l-0.001-0c0.152 0.003 0.307 0.057 0.469 0.162 0.156 0.104 0.308 0.257 0.456 0.461zM1.752 20.529c-0.081-0.219-0.109-0.426-0.085-0.622 0.020-0.198 0.098-0.375 0.235-0.531 0.136-0.159 0.333-0.286 0.594-0.383l1.565-0.579 0.136 0.364-1.53 0.565c-0.284 0.105-0.472 0.256-0.562 0.453-0.095 0.195-0.095 0.42 0.001 0.677 0.072 0.192 0.173 0.344 0.305 0.459 0.127 0.112 0.279 0.181 0.456 0.205 0.172 0.022 0.36-0.005 0.566-0.081l1.417-0.524 0.136 0.364-3.809 1.408-0.136-0.364 1.853-0.685-0.112 0.123c-0.234-0.013-0.445-0.102-0.611-0.243l0.002 0.001c-0.183-0.146-0.323-0.349-0.42-0.609zM3.92 16.76c0.002 0.031 0.004 0.068 0.004 0.104 0 0.238-0.055 0.463-0.153 0.663l0.004-0.009c-0.116 0.225-0.283 0.41-0.486 0.544l-0.005 0.003c-0.216 0.139-0.465 0.217-0.749 0.232-0.288 0.016-0.544-0.035-0.77-0.15-0.224-0.115-0.407-0.282-0.539-0.486l-0.003-0.005c-0.136-0.212-0.211-0.459-0.227-0.739-0.015-0.284 0.033-0.539 0.145-0.764 0.112-0.229 0.274-0.411 0.486-0.547 0.211-0.139 0.461-0.216 0.749-0.232 0.284-0.016 0.541 0.035 0.77 0.15 0.226 0.112 0.408 0.276 0.547 0.491 0.136 0.216 0.212 0.464 0.227 0.744zM3.575 16.778c-0.007-0.203-0.068-0.39-0.169-0.549l0.003 0.005c-0.103-0.154-0.243-0.275-0.408-0.353l-0.006-0.003c-0.176-0.085-0.376-0.122-0.598-0.11-0.226 0.012-0.42 0.070-0.583 0.174-0.158 0.096-0.283 0.231-0.365 0.392l-0.003 0.006c-0.073 0.139-0.115 0.304-0.115 0.479 0 0.026 0.001 0.053 0.003 0.079l-0-0.003c0.011 0.204 0.069 0.383 0.172 0.539 0.1 0.155 0.236 0.276 0.409 0.361s0.372 0.123 0.598 0.11c0.222-0.012 0.417-0.070 0.583-0.174 0.163-0.104 0.287-0.238 0.373-0.404 0.083-0.165 0.118-0.348 0.107-0.548zM4.242 13.351c-0.058 0.239-0.172 0.446-0.329 0.613l0.001-0.001c-0.163 0.166-0.363 0.282-0.601 0.347-0.241 0.060-0.514 0.052-0.818-0.024s-0.547-0.197-0.727-0.362c-0.172-0.151-0.301-0.349-0.365-0.574l-0.002-0.008c-0.029-0.104-0.045-0.224-0.045-0.347 0-0.125 0.017-0.246 0.049-0.362l-0.002 0.010c0.067-0.265 0.187-0.488 0.359-0.666 0.164-0.178 0.376-0.309 0.616-0.373l0.009-0.002c0.243-0.067 0.504-0.066 0.783 0.004 0.284 0.071 0.516 0.193 0.699 0.366s0.307 0.381 0.373 0.624c0.068 0.239 0.069 0.491 0.002 0.757zM4.883 15.040l-3.818-0.954 0.091-0.361 0.839 0.21 0.548 0.176 0.576 0.088 1.859 0.464-0.095 0.377zM3.901 13.294c0.050-0.198 0.050-0.386 0-0.564-0.056-0.185-0.156-0.343-0.288-0.466l-0.001-0.001c-0.143-0.133-0.323-0.227-0.539-0.281s-0.417-0.055-0.603-0.004c-0.187 0.051-0.348 0.147-0.476 0.276l-0 0c-0.13 0.134-0.225 0.302-0.27 0.49l-0.001 0.007c-0.050 0.198-0.049 0.388 0.003 0.571 0.053 0.179 0.149 0.334 0.289 0.467 0.141 0.129 0.319 0.221 0.535 0.275s0.419 0.058 0.607 0.011c0.187-0.051 0.348-0.147 0.476-0.276l0-0c0.127-0.137 0.22-0.307 0.266-0.495l0.002-0.008zM3.999 7.578c0.147-0.181 0.312-0.312 0.493-0.39 0.181-0.084 0.373-0.107 0.578-0.069 0.206 0.035 0.418 0.14 0.634 0.314l1.3 1.048-0.245 0.302-1.27-1.024c-0.236-0.19-0.461-0.274-0.678-0.251-0.216 0.018-0.411 0.133-0.583 0.345-0.129 0.159-0.209 0.324-0.24 0.496-0.032 0.166-0.013 0.331 0.056 0.495 0.069 0.159 0.188 0.307 0.359 0.444l1.176 0.948-0.245 0.302-2.237-1.803 0.235-0.289 0.613 0.495-0.153-0.046c-0.074-0.138-0.118-0.302-0.118-0.477 0-0.060 0.005-0.118 0.015-0.175l-0.001 0.006c0.033-0.232 0.136-0.455 0.312-0.67zM8.349 7.512c-0.204 0.143-0.452 0.238-0.721 0.263l-0.006 0c-0.029 0.002-0.063 0.003-0.096 0.003-0.228 0-0.444-0.053-0.635-0.148l0.008 0.004c-0.231-0.114-0.425-0.288-0.585-0.524-0.161-0.239-0.25-0.485-0.267-0.737s0.032-0.491 0.144-0.716 0.285-0.416 0.519-0.572c0.236-0.158 0.48-0.247 0.731-0.267 0.036-0.003 0.078-0.005 0.12-0.005 0.219 0 0.425 0.053 0.607 0.146l-0.008-0.003c0.228 0.11 0.423 0.285 0.584 0.524 0.159 0.236 0.248 0.482 0.267 0.737 0.003 0.033 0.004 0.071 0.004 0.109 0 0.223-0.054 0.434-0.149 0.619l0.004-0.008c-0.115 0.227-0.29 0.419-0.523 0.575zM8.156 7.227c0.173-0.116 0.3-0.256 0.383-0.421 0.080-0.168 0.111-0.347 0.093-0.537-0.017-0.195-0.088-0.385-0.212-0.569-0.126-0.188-0.276-0.324-0.449-0.411-0.132-0.072-0.29-0.114-0.458-0.114-0.026 0-0.052 0.001-0.077 0.003l0.003-0c-0.201 0.014-0.384 0.082-0.538 0.189l0.003-0.002c-0.17 0.114-0.295 0.255-0.375 0.423-0.066 0.13-0.105 0.284-0.105 0.447 0 0.031 0.001 0.062 0.004 0.093l-0-0.004c0.016 0.192 0.086 0.382 0.213 0.569 0.125 0.185 0.275 0.322 0.449 0.411 0.173 0.086 0.352 0.124 0.539 0.113 0.199-0.017 0.378-0.085 0.53-0.191l-0.003 0.002zM10.499 6.236l-1.733-2.538 0.362-0.087 1.588 2.358-0.165 0.040 0.354-2.828 0.324-0.079 1.604 2.355-0.165 0.040 0.343-2.825 0.346-0.084-0.379 3.048-0.357 0.086-1.529-2.209 0.112-0.027-0.349 2.664-0.356 0.086zM16.333 5.834c-0.24-0.051-0.454-0.133-0.649-0.243l0.011 0.006c-0.192-0.112-0.337-0.231-0.433-0.356l0.236-0.263c0.096 0.11 0.226 0.216 0.39 0.319 0.165 0.099 0.347 0.169 0.543 0.211 0.267 0.057 0.469 0.057 0.605 0 0.136-0.060 0.219-0.16 0.249-0.299 0.022-0.104 0.005-0.191-0.050-0.263-0.059-0.080-0.136-0.145-0.225-0.188l-0.004-0.002c-0.093-0.052-0.205-0.104-0.321-0.15l-0.020-0.007c-0.18-0.069-0.305-0.123-0.429-0.18l0.049 0.020c-0.122-0.056-0.232-0.122-0.327-0.198-0.091-0.076-0.163-0.172-0.211-0.281l-0.002-0.005c-0.044-0.11-0.048-0.245-0.013-0.406 0.033-0.153 0.105-0.282 0.217-0.384s0.257-0.171 0.436-0.204c0.183-0.035 0.394-0.027 0.633 0.024 0.182 0.039 0.358 0.103 0.53 0.192 0.172 0.085 0.308 0.18 0.409 0.283l-0.232 0.269c-0.102-0.108-0.222-0.198-0.355-0.264l-0.007-0.003c-0.12-0.064-0.259-0.116-0.405-0.149l-0.011-0.002c-0.253-0.054-0.451-0.049-0.591 0.014-0.136 0.060-0.219 0.158-0.248 0.294-0.023 0.107-0.009 0.198 0.042 0.272 0.055 0.075 0.132 0.142 0.232 0.201 0.104 0.056 0.217 0.108 0.341 0.157 0.128 0.050 0.252 0.104 0.373 0.164 0.126 0.056 0.237 0.123 0.332 0.2 0.1 0.074 0.171 0.165 0.215 0.275 0.048 0.107 0.056 0.237 0.023 0.391-0.035 0.164-0.112 0.297-0.232 0.398-0.115 0.099-0.267 0.163-0.456 0.194-0.185 0.027-0.401 0.015-0.647-0.038zM20.603 4.275c0.207 0.108 0.367 0.243 0.48 0.404 0.118 0.16 0.179 0.344 0.181 0.552 0.006 0.208-0.056 0.436-0.185 0.681l-0.776 1.478-0.345-0.179 0.758-1.444c0.141-0.268 0.179-0.506 0.114-0.712-0.059-0.208-0.211-0.375-0.453-0.502-0.181-0.094-0.359-0.14-0.534-0.136-0.17 0.002-0.328 0.053-0.476 0.153-0.142 0.099-0.264 0.245-0.366 0.439l-0.702 1.338-0.344-0.18 1.887-3.596 0.344 0.179-0.918 1.75 0-0.166c0.167-0.136 0.38-0.221 0.613-0.229l0.002-0c0.234-0.014 0.474 0.043 0.72 0.172zM21.541 8.529c-0.184-0.177-0.323-0.399-0.399-0.649l-0.003-0.011c-0.032-0.112-0.050-0.24-0.050-0.373 0-0.129 0.017-0.253 0.049-0.372l-0.002 0.010c0.067-0.248 0.2-0.472 0.401-0.674 0.203-0.204 0.428-0.339 0.673-0.404 0.109-0.031 0.235-0.049 0.365-0.049 0.131 0 0.258 0.018 0.378 0.052l-0.010-0.002c0.243 0.066 0.464 0.198 0.664 0.396 0.202 0.2 0.338 0.421 0.405 0.663 0.071 0.244 0.073 0.488 0.007 0.73-0.064 0.245-0.197 0.47-0.401 0.674-0.201 0.202-0.425 0.337-0.673 0.405-0.112 0.033-0.24 0.051-0.373 0.051-0.129 0-0.255-0.018-0.373-0.051l0.010 0.002c-0.246-0.069-0.469-0.202-0.668-0.399zM21.784 8.285c0.148 0.146 0.311 0.243 0.49 0.292 0.181 0.045 0.363 0.041 0.547-0.013 0.188-0.055 0.361-0.161 0.518-0.319 0.16-0.16 0.265-0.333 0.316-0.519 0.026-0.084 0.042-0.181 0.042-0.281 0-0.093-0.013-0.182-0.038-0.267l0.002 0.007c-0.053-0.192-0.154-0.357-0.288-0.486l-0-0c-0.131-0.134-0.296-0.233-0.482-0.283l-0.007-0.002c-0.079-0.022-0.169-0.035-0.263-0.035-0.101 0-0.199 0.015-0.291 0.043l0.007-0.002c-0.186 0.052-0.359 0.158-0.518 0.319-0.157 0.158-0.263 0.331-0.316 0.519-0.051 0.185-0.053 0.368-0.006 0.549 0.050 0.178 0.146 0.337 0.289 0.478zM23.572 11.221c-0.107-0.188-0.17-0.414-0.17-0.654 0-0.007 0-0.013 0-0.020v0.001c0.008-0.232 0.078-0.452 0.211-0.659 0.138-0.206 0.345-0.383 0.621-0.531s0.538-0.221 0.783-0.221c0.007-0 0.014-0 0.022-0 0.238 0 0.46 0.069 0.647 0.187l-0.005-0.003c0.195 0.123 0.352 0.296 0.472 0.518 0.13 0.24 0.191 0.485 0.184 0.733-0.002 0.259-0.080 0.5-0.213 0.701l0.003-0.005c-0.134 0.213-0.328 0.387-0.582 0.523-0.257 0.138-0.512 0.204-0.764 0.198-0.26-0.005-0.5-0.083-0.703-0.213l0.005 0.003c-0.212-0.131-0.382-0.317-0.512-0.557zM21.957 10.403l3.469-1.858 0.177 0.328-0.763 0.408-0.525 0.237-0.485 0.322-1.689 0.904-0.184-0.342zM23.864 11.034c0.097 0.18 0.224 0.319 0.38 0.417 0.16 0.097 0.336 0.147 0.529 0.152 0.196 0.003 0.392-0.049 0.589-0.154s0.346-0.239 0.449-0.402c0.103-0.163 0.158-0.337 0.165-0.523 0-0.010 0.001-0.021 0.001-0.033 0-0.189-0.050-0.367-0.138-0.521l0.003 0.005c-0.092-0.174-0.223-0.316-0.383-0.417l-0.004-0.003c-0.151-0.093-0.334-0.149-0.529-0.151h-0.001c-0.191-0.001-0.385 0.051-0.581 0.156s-0.348 0.239-0.456 0.4c-0.103 0.163-0.158 0.337-0.165 0.523-0.003 0.188 0.045 0.372 0.142 0.552z"></path>
</symbol>
<symbol id="icon-mobileLogo" viewBox="0 0 41 32">
<path d="M16.242 31.144v-4.916l-0.22-0.923v-8.384c0-1.785-0.527-3.161-1.58-4.126-1.024-0.996-2.575-1.492-4.653-1.492-1.375 0-2.721 0.234-4.038 0.702-1.316 0.439-2.428 1.039-3.336 1.8l-1.756-3.161c1.2-0.965 2.634-1.698 4.302-2.195 1.569-0.501 3.375-0.79 5.248-0.79 0.022 0 0.045 0 0.067 0h-0.003c3.189 0 5.648 0.776 7.374 2.326s2.589 3.922 2.589 7.111v14.047h-3.994zM8.604 31.407c-1.726 0-3.248-0.292-4.565-0.877-1.287-0.586-2.283-1.39-2.985-2.414-0.702-1.054-1.053-2.24-1.053-3.556 0-1.259 0.293-2.4 0.878-3.424 0.614-1.025 1.595-1.844 2.94-2.459 1.376-0.614 3.22-0.922 5.531-0.922h7.375v3.029h-7.199c-2.107 0-3.526 0.351-4.258 1.053s-1.099 1.551-1.099 2.546c0 1.141 0.453 2.063 1.361 2.765 0.907 0.673 2.165 1.010 3.775 1.010 1.58 0 2.956-0.351 4.126-1.053 1.2-0.702 2.063-1.727 2.59-3.073l0.834 2.898c-0.556 1.374-1.536 2.472-2.941 3.292-1.404 0.79-3.175 1.185-5.311 1.185z"></path>
<path d="M29.717 31.407c-2.487 0-4.682-0.512-6.584-1.536-1.873-1.024-3.336-2.429-4.389-4.213-1.024-1.787-1.537-3.835-1.537-6.146s0.498-4.361 1.493-6.146c1.024-1.785 2.413-3.175 4.169-4.17 1.786-1.025 3.79-1.537 6.014-1.537 2.253 0 4.244 0.498 5.97 1.493 1.727 0.994 3.073 2.399 4.039 4.213 0.995 1.785 1.492 3.877 1.492 6.277 0 0.175-0.014 0.38-0.044 0.614 0 0.234-0.014 0.453-0.044 0.658h-19.796v-3.028h17.602l-1.712 1.053c0.029-1.492-0.278-2.823-0.922-3.994-0.629-1.15-1.541-2.076-2.644-2.704l-0.034-0.018c-1.111-0.673-2.414-1.010-3.907-1.010-1.463 0-2.764 0.337-3.907 1.010-1.141 0.644-2.034 1.565-2.677 2.765-0.644 1.171-0.966 2.516-0.966 4.038v0.702c0 1.551 0.351 2.942 1.054 4.171 0.732 1.2 1.74 2.136 3.028 2.809s2.765 1.010 4.434 1.010c1.375 0 2.619-0.234 3.731-0.702 1.178-0.491 2.175-1.206 2.978-2.099l0.007-0.007 2.326 2.721c-1.053 1.229-2.37 2.166-3.95 2.809-1.551 0.644-3.292 0.966-5.224 0.966z"></path>
<path d="M37.311 3.292h-15.364v-3.292h15.364v3.292z"></path>
</symbol>
<symbol id="icon-tablet-arrow-btn" viewBox="0 0 31 32">
<path d="M21.314 13.667c0.002-0.010 0.003-0.022 0.003-0.033 0-0.106-0.077-0.194-0.178-0.21l-0.001-0-1.897-0.3c-0.011-0.002-0.024-0.003-0.037-0.003-0.118 0-0.213 0.095-0.213 0.213 0 0.107 0.079 0.196 0.183 0.211l0.001 0 1.686 0.267-0.267 1.686c-0.002 0.010-0.003 0.022-0.003 0.033 0 0.118 0.096 0.213 0.213 0.213 0.106 0 0.194-0.077 0.211-0.179l0-0.001 0.3-1.897zM11.219 21.079l10.010-7.273-0.251-0.345-10.010 7.273 0.251 0.345zM28.301 16.802c0.011-0.17 0.046-0.329 0.104-0.478l-0.004 0.011c0.058-0.145 0.126-0.257 0.203-0.337l0.207 0.137c-0.067 0.078-0.127 0.179-0.182 0.304-0.050 0.117-0.082 0.253-0.091 0.395l-0 0.004c-0.013 0.192 0.008 0.332 0.061 0.42 0.056 0.088 0.133 0.136 0.233 0.142 0.074 0.005 0.133-0.016 0.177-0.061 0.047-0.043 0.082-0.102 0.108-0.178 0.028-0.075 0.053-0.159 0.074-0.253s0.046-0.187 0.072-0.28c0.026-0.091 0.061-0.173 0.105-0.247 0.045-0.073 0.104-0.132 0.175-0.176l0.002-0.001c0.072-0.041 0.166-0.058 0.281-0.051 0.11 0.007 0.206 0.044 0.289 0.111s0.145 0.161 0.186 0.282c0.043 0.123 0.059 0.271 0.048 0.442-0.010 0.142-0.038 0.274-0.083 0.398l0.003-0.010c-0.042 0.128-0.093 0.233-0.155 0.313l-0.211-0.133c0.067-0.085 0.117-0.178 0.149-0.279 0.035-0.1 0.055-0.202 0.062-0.304 0.012-0.181-0.011-0.317-0.069-0.409-0.056-0.088-0.132-0.136-0.229-0.142-0.077-0.005-0.138 0.014-0.185 0.057-0.049 0.050-0.088 0.11-0.114 0.177l-0.001 0.004c-0.028 0.078-0.053 0.162-0.074 0.253-0.022 0.093-0.047 0.186-0.076 0.276-0.027 0.096-0.063 0.179-0.108 0.256l0.003-0.005c-0.041 0.077-0.097 0.136-0.169 0.177-0.070 0.044-0.159 0.063-0.269 0.055-0.118-0.008-0.217-0.048-0.3-0.12-0.080-0.069-0.14-0.168-0.181-0.297-0.038-0.126-0.051-0.277-0.039-0.453zM29.967 19.45c-0.039 0.159-0.103 0.291-0.195 0.395-0.087 0.105-0.206 0.181-0.34 0.216l-0.005 0.001c-0.141 0.039-0.307 0.036-0.496-0.009l-1.138-0.276 0.064-0.265 1.112 0.27c0.206 0.050 0.375 0.036 0.505-0.044 0.132-0.076 0.22-0.207 0.266-0.394 0.034-0.139 0.035-0.268 0.003-0.387s-0.097-0.221-0.184-0.297l-0.001-0.001c-0.091-0.080-0.211-0.138-0.361-0.174l-1.030-0.25 0.064-0.265 2.769 0.671-0.064 0.265-1.347-0.326 0.113-0.028c0.127 0.096 0.213 0.223 0.26 0.379 0.049 0.157 0.050 0.33 0.004 0.519zM27.201 21.162c0.083-0.176 0.196-0.317 0.341-0.421 0.136-0.096 0.302-0.16 0.481-0.176l0.004-0c0.179-0.015 0.36 0.020 0.541 0.104 0.183 0.086 0.325 0.201 0.427 0.348s0.159 0.307 0.172 0.483c0.014 0.176-0.021 0.353-0.105 0.532-0.085 0.181-0.199 0.322-0.343 0.425-0.145 0.105-0.305 0.164-0.482 0.177-0.177 0.016-0.357-0.019-0.54-0.104-0.181-0.084-0.323-0.201-0.427-0.348-0.098-0.136-0.162-0.301-0.176-0.481l-0-0.003c-0.013-0.178 0.023-0.357 0.106-0.535zM27.421 21.264c-0.062 0.132-0.088 0.263-0.077 0.392 0.013 0.13 0.059 0.249 0.138 0.357 0.081 0.111 0.192 0.2 0.333 0.266 0.144 0.067 0.283 0.096 0.418 0.085 0.135-0.007 0.259-0.053 0.361-0.126l-0.002 0.001c0.108-0.074 0.192-0.176 0.253-0.305s0.085-0.26 0.072-0.39c-0.011-0.136-0.059-0.259-0.134-0.361l0.001 0.002c-0.078-0.11-0.189-0.199-0.333-0.266-0.141-0.066-0.281-0.095-0.418-0.085s-0.262 0.056-0.367 0.128l0.002-0.002c-0.107 0.078-0.192 0.18-0.246 0.299l-0.002 0.005zM25.92 23.326c0.103-0.14 0.228-0.244 0.375-0.311 0.106-0.047 0.229-0.074 0.359-0.074 0.043 0 0.086 0.003 0.127 0.009l-0.005-0.001c0.172 0.025 0.348 0.102 0.525 0.232s0.303 0.273 0.377 0.428c0.076 0.157 0.104 0.315 0.084 0.476s-0.081 0.312-0.186 0.454c-0.113 0.155-0.25 0.268-0.41 0.338-0.113 0.054-0.245 0.086-0.385 0.086-0.042 0-0.084-0.003-0.125-0.008l0.005 0.001c-0.176-0.020-0.345-0.091-0.508-0.21-0.165-0.121-0.284-0.262-0.356-0.423-0.053-0.114-0.085-0.248-0.085-0.39 0-0.040 0.003-0.080 0.008-0.119l-0 0.005c0.019-0.173 0.085-0.337 0.199-0.492zM25.95 22.058l2.227 1.631-0.154 0.211-0.489-0.358-0.31-0.26-0.351-0.209-1.084-0.794 0.161-0.22zM26.126 23.453c-0.085 0.116-0.135 0.238-0.15 0.366-0.013 0.13 0.009 0.257 0.064 0.38 0.058 0.125 0.15 0.233 0.276 0.326s0.256 0.146 0.391 0.162c0.028 0.004 0.060 0.006 0.093 0.006 0.104 0 0.204-0.022 0.293-0.061l-0.005 0.002c0.12-0.051 0.223-0.135 0.308-0.251s0.134-0.239 0.149-0.372c0.002-0.022 0.004-0.047 0.004-0.072 0-0.112-0.025-0.217-0.069-0.312l0.002 0.004c-0.057-0.121-0.149-0.228-0.275-0.32s-0.256-0.148-0.391-0.168c-0.028-0.004-0.060-0.006-0.093-0.006-0.104 0-0.204 0.022-0.294 0.061l0.005-0.002c-0.125 0.059-0.228 0.146-0.305 0.254l-0.002 0.002zM24.76 27.412c-0.13 0.1-0.263 0.163-0.399 0.187-0.040 0.009-0.085 0.014-0.132 0.014-0.099 0-0.193-0.022-0.277-0.061l0.004 0.002c-0.135-0.057-0.262-0.163-0.381-0.317l-0.717-0.926 0.216-0.167 0.7 0.905c0.13 0.168 0.27 0.262 0.421 0.281 0.15 0.023 0.302-0.024 0.454-0.142 0.113-0.088 0.195-0.188 0.244-0.3 0.032-0.071 0.051-0.154 0.051-0.241 0-0.038-0.003-0.074-0.010-0.11l0.001 0.004c-0.021-0.119-0.079-0.24-0.173-0.361l-0.649-0.838 0.216-0.167 1.234 1.594-0.207 0.16-0.338-0.437 0.097 0.056c0.039 0.154 0.027 0.307-0.034 0.458-0.060 0.153-0.167 0.289-0.321 0.408zM21.552 27.014c0.174-0.087 0.351-0.126 0.529-0.118 0.178 0.012 0.341 0.066 0.49 0.163 0.15 0.1 0.27 0.239 0.359 0.417 0.090 0.181 0.13 0.36 0.119 0.537-0.011 0.183-0.071 0.349-0.167 0.489l0.002-0.003c-0.099 0.147-0.236 0.264-0.412 0.352-0.179 0.089-0.356 0.129-0.532 0.12-0.183-0.007-0.351-0.066-0.491-0.162l0.003 0.002c-0.149-0.097-0.269-0.237-0.359-0.417-0.089-0.179-0.129-0.358-0.118-0.538 0.009-0.176 0.064-0.339 0.163-0.489 0.101-0.148 0.239-0.265 0.416-0.354zM21.661 27.23c-0.131 0.065-0.232 0.151-0.304 0.259-0.068 0.103-0.11 0.229-0.113 0.365l-0 0.001c-0.006 0.137 0.026 0.276 0.096 0.416 0.071 0.142 0.163 0.251 0.275 0.326 0.1 0.072 0.224 0.118 0.357 0.126l0.002 0c0.131 0.009 0.26-0.018 0.388-0.082s0.228-0.151 0.299-0.261c0.069-0.103 0.113-0.228 0.119-0.363l0-0.001c0.007-0.135-0.025-0.274-0.096-0.416-0.070-0.14-0.162-0.248-0.275-0.326-0.102-0.071-0.227-0.117-0.362-0.127l-0.002-0c-0.010-0-0.023-0.001-0.035-0.001-0.127 0-0.247 0.031-0.352 0.087l0.004-0.002zM19.846 27.773l1.228 1.771-0.253 0.063-1.126-1.646 0.116-0.029-0.234 1.987-0.227 0.057-1.137-1.643 0.115-0.029-0.226 1.985-0.242 0.061 0.25-2.141 0.25-0.063 1.084 1.542-0.078 0.020 0.231-1.871 0.25-0.063zM15.598 28.327c0.166 0.005 0.323 0.033 0.47 0.084 0.147 0.053 0.262 0.117 0.344 0.191l-0.129 0.211c-0.080-0.064-0.183-0.121-0.31-0.171-0.119-0.046-0.256-0.074-0.399-0.078l-0.002-0c-0.192-0.006-0.331 0.019-0.417 0.075-0.086 0.059-0.131 0.138-0.134 0.238-0.002 0.074 0.020 0.132 0.068 0.175 0.045 0.045 0.105 0.079 0.181 0.102 0.076 0.025 0.161 0.047 0.255 0.066s0.188 0.039 0.282 0.063c0.092 0.023 0.175 0.055 0.251 0.096 0.076 0.043 0.137 0.1 0.183 0.171 0.044 0.071 0.064 0.163 0.060 0.279-0.002 0.111-0.040 0.212-0.102 0.294l0.001-0.001c-0.064 0.085-0.156 0.15-0.275 0.195-0.122 0.047-0.268 0.068-0.44 0.063-0.141-0.005-0.274-0.028-0.4-0.069l0.011 0.003c-0.129-0.037-0.236-0.086-0.318-0.144l0.126-0.215c0.087 0.064 0.182 0.111 0.284 0.139 0.101 0.031 0.203 0.049 0.306 0.052 0.182 0.006 0.317-0.022 0.406-0.084 0.086-0.059 0.131-0.137 0.134-0.234 0.002-0.077-0.019-0.138-0.064-0.183-0.052-0.047-0.113-0.084-0.181-0.108l-0.004-0.001c-0.067-0.023-0.153-0.045-0.241-0.063l-0.015-0.003c-0.117-0.022-0.21-0.045-0.302-0.072l0.024 0.006c-0.097-0.024-0.181-0.057-0.26-0.099l0.006 0.003c-0.076-0.037-0.139-0.093-0.182-0.161l-0.001-0.002c-0.046-0.068-0.068-0.157-0.065-0.267 0.004-0.118 0.040-0.219 0.109-0.304 0.067-0.082 0.163-0.146 0.29-0.191 0.124-0.042 0.275-0.061 0.451-0.055zM13.021 30.081c-0.16-0.033-0.294-0.093-0.402-0.181-0.108-0.084-0.188-0.2-0.227-0.333l-0.001-0.005c-0.044-0.14-0.047-0.305-0.007-0.496l0.237-1.147 0.267 0.055-0.232 1.12c-0.043 0.208-0.023 0.376 0.061 0.503 0.080 0.129 0.215 0.213 0.403 0.252 0.14 0.029 0.269 0.025 0.386-0.010 0.114-0.034 0.211-0.099 0.291-0.195 0.077-0.094 0.131-0.216 0.162-0.366l0.215-1.038 0.267 0.055-0.577 2.79-0.267-0.055 0.281-1.357 0.032 0.112c-0.090 0.127-0.217 0.222-0.365 0.271l-0.005 0.001c-0.155 0.054-0.328 0.062-0.518 0.022zM11.24 27.387c0.179 0.076 0.324 0.184 0.434 0.325 0.107 0.142 0.171 0.302 0.194 0.478 0.022 0.179-0.006 0.36-0.084 0.544-0.079 0.186-0.189 0.333-0.332 0.439-0.132 0.101-0.295 0.169-0.472 0.19l-0.005 0c-0.176 0.020-0.354-0.008-0.535-0.084-0.184-0.078-0.33-0.187-0.437-0.327-0.104-0.131-0.175-0.293-0.195-0.47l-0-0.004c-0.023-0.176 0.006-0.358 0.084-0.544 0.078-0.184 0.188-0.33 0.332-0.439 0.132-0.103 0.296-0.173 0.474-0.194l0.004-0c0.178-0.019 0.358 0.009 0.539 0.086zM11.146 27.61c-0.134-0.057-0.266-0.078-0.395-0.063-0.135 0.018-0.255 0.073-0.353 0.152l0.001-0.001c-0.108 0.085-0.193 0.199-0.254 0.343-0.062 0.146-0.085 0.287-0.070 0.421 0.013 0.133 0.059 0.252 0.138 0.354 0.078 0.105 0.183 0.186 0.315 0.241s0.263 0.075 0.393 0.058c0.136-0.016 0.256-0.069 0.356-0.148l-0.001 0.001c0.107-0.082 0.192-0.197 0.253-0.343 0.061-0.144 0.084-0.284 0.070-0.421s-0.065-0.259-0.141-0.361l0.001 0.002c-0.081-0.104-0.186-0.184-0.308-0.235l-0.005-0.002zM9.031 26.187c0.144 0.098 0.252 0.219 0.324 0.364 0.070 0.147 0.098 0.306 0.083 0.479-0.018 0.173-0.090 0.351-0.213 0.533s-0.262 0.313-0.415 0.392c-0.154 0.081-0.311 0.115-0.473 0.102s-0.315-0.070-0.461-0.169c-0.159-0.108-0.276-0.24-0.353-0.397-0.063-0.12-0.1-0.263-0.1-0.414 0-0.031 0.002-0.061 0.005-0.091l-0 0.004c0.014-0.176 0.078-0.348 0.192-0.515 0.115-0.169 0.252-0.293 0.41-0.372 0.123-0.063 0.268-0.099 0.421-0.099 0.028 0 0.056 0.001 0.084 0.004l-0.004-0c0.174 0.013 0.34 0.073 0.499 0.18zM10.301 26.17l-1.551 2.284-0.216-0.147 0.341-0.502 0.249-0.319 0.197-0.358 0.755-1.112 0.226 0.153zM8.911 26.398c-0.119-0.080-0.243-0.126-0.372-0.136-0.014-0.001-0.030-0.001-0.046-0.001-0.121 0-0.235 0.029-0.336 0.081l0.004-0.002c-0.123 0.062-0.228 0.158-0.316 0.287s-0.137 0.261-0.148 0.396c-0.002 0.020-0.003 0.043-0.003 0.067 0 0.114 0.026 0.221 0.072 0.317l-0.002-0.004c0.056 0.118 0.143 0.218 0.262 0.298 0.106 0.075 0.235 0.124 0.374 0.135l0.003 0c0.014 0.001 0.029 0.001 0.045 0.001 0.121 0 0.236-0.029 0.336-0.081l-0.004 0.002c0.119-0.061 0.223-0.157 0.31-0.286s0.139-0.262 0.154-0.397c0.002-0.020 0.003-0.043 0.003-0.066 0-0.114-0.026-0.222-0.072-0.318l0.002 0.004c-0.064-0.122-0.154-0.222-0.264-0.295l-0.003-0.002zM4.907 25.181c-0.105-0.126-0.172-0.256-0.202-0.392-0.012-0.047-0.019-0.1-0.019-0.155 0-0.091 0.019-0.177 0.052-0.255l-0.002 0.004c0.052-0.137 0.154-0.268 0.303-0.392l0.9-0.749 0.175 0.209-0.88 0.732c-0.163 0.136-0.252 0.279-0.266 0.431-0.017 0.151 0.035 0.3 0.158 0.448 0.092 0.11 0.195 0.188 0.309 0.233 0.066 0.027 0.142 0.043 0.222 0.043 0.045 0 0.089-0.005 0.132-0.015l-0.004 0.001c0.119-0.026 0.237-0.087 0.355-0.186l0.815-0.678 0.175 0.209-1.55 1.29-0.167-0.201 0.425-0.354-0.053 0.099c-0.061 0.019-0.131 0.029-0.204 0.029-0.092 0-0.18-0.017-0.261-0.048l0.005 0.002c-0.155-0.054-0.295-0.156-0.419-0.305zM5.191 21.97c0.093 0.171 0.139 0.345 0.138 0.524-0.004 0.184-0.058 0.354-0.148 0.499l0.002-0.004c-0.094 0.153-0.229 0.278-0.404 0.374-0.178 0.097-0.355 0.143-0.533 0.138-0.183-0.004-0.352-0.058-0.496-0.149l0.004 0.002c-0.15-0.093-0.273-0.226-0.367-0.399-0.096-0.175-0.143-0.351-0.14-0.527 0-0.183 0.053-0.353 0.144-0.497l-0.002 0.004c0.092-0.152 0.226-0.277 0.404-0.374 0.175-0.096 0.353-0.142 0.533-0.138 0.177 0.003 0.342 0.051 0.495 0.145 0.151 0.095 0.274 0.229 0.369 0.402zM4.979 22.086c-0.070-0.128-0.16-0.226-0.271-0.294-0.103-0.063-0.228-0.1-0.362-0.1-0.003 0-0.006 0-0.009 0h0c-0.137-0.001-0.275 0.036-0.412 0.111-0.139 0.076-0.245 0.172-0.316 0.287-0.068 0.102-0.11 0.228-0.112 0.363v0.001c-0.004 0.131 0.028 0.259 0.097 0.385s0.16 0.222 0.272 0.289c0.105 0.066 0.232 0.105 0.368 0.105h0c0.135 0.002 0.273-0.035 0.412-0.111 0.137-0.075 0.243-0.17 0.316-0.287 0.067-0.104 0.109-0.231 0.113-0.367l0-0.001c0.002-0.13-0.030-0.256-0.098-0.38zM4.367 20.3l-1.728 1.287-0.072-0.251 1.606-1.18 0.033 0.114-1.994-0.167-0.065-0.225 1.603-1.191 0.033 0.114-1.992-0.159-0.069-0.24 2.149 0.178 0.071 0.247-1.504 1.135-0.022-0.077 1.878 0.168 0.071 0.247zM3.657 16.147c0 0.006 0 0.014 0 0.021 0 0.161-0.024 0.316-0.069 0.463l0.003-0.011c-0.048 0.149-0.107 0.266-0.178 0.351l-0.216-0.121c0.061-0.082 0.114-0.188 0.159-0.316 0.043-0.128 0.063-0.263 0.062-0.404-0.002-0.192-0.032-0.33-0.092-0.414-0.062-0.084-0.143-0.126-0.243-0.125-0.074 0.001-0.132 0.025-0.172 0.074-0.043 0.046-0.075 0.108-0.095 0.185-0.022 0.077-0.041 0.163-0.055 0.258s-0.032 0.19-0.052 0.285c-0.020 0.092-0.049 0.177-0.086 0.254-0.041 0.077-0.095 0.14-0.164 0.19-0.069 0.047-0.161 0.070-0.276 0.071-0.003 0-0.006 0-0.010 0-0.107 0-0.207-0.034-0.288-0.091l0.002 0.001c-0.087-0.061-0.156-0.15-0.206-0.267-0.052-0.12-0.079-0.266-0.080-0.437 0-0.002-0-0.005-0-0.008 0-0.136 0.019-0.269 0.053-0.394l-0.002 0.010c0.032-0.131 0.076-0.239 0.132-0.324l0.22 0.117c-0.057 0.083-0.101 0.179-0.127 0.283l-0.001 0.006c-0.025 0.090-0.040 0.194-0.040 0.301 0 0.002 0 0.005 0 0.007v-0c0.002 0.182 0.035 0.316 0.099 0.403 0.062 0.084 0.142 0.125 0.239 0.125 0.077-0.001 0.137-0.024 0.18-0.070 0.045-0.053 0.080-0.116 0.101-0.185l0.001-0.004c0.022-0.080 0.041-0.166 0.055-0.258 0.015-0.095 0.033-0.189 0.055-0.281 0.020-0.095 0.048-0.181 0.086-0.258 0.035-0.080 0.087-0.143 0.156-0.189 0.066-0.049 0.154-0.074 0.264-0.075 0.118-0.001 0.22 0.032 0.308 0.098 0.085 0.063 0.152 0.158 0.202 0.283 0.047 0.122 0.071 0.272 0.073 0.449zM1.803 13.612c0.027-0.162 0.082-0.298 0.166-0.409 0.080-0.112 0.193-0.196 0.324-0.24l0.005-0.001c0.138-0.050 0.303-0.058 0.495-0.026l1.155 0.193-0.045 0.269-1.129-0.188c-0.209-0.035-0.376-0.008-0.5 0.080-0.126 0.085-0.205 0.223-0.236 0.412-0.024 0.141-0.015 0.27 0.025 0.386 0.038 0.113 0.107 0.207 0.206 0.283 0.097 0.073 0.221 0.122 0.372 0.148l1.045 0.174-0.045 0.269-2.81-0.468 0.045-0.269 1.367 0.228-0.111 0.036c-0.131-0.085-0.231-0.209-0.285-0.354l-0.002-0.005c-0.060-0.153-0.074-0.325-0.042-0.517zM4.423 11.727c-0.069 0.182-0.172 0.331-0.309 0.446-0.13 0.107-0.29 0.181-0.465 0.211l-0.006 0.001c-0.178 0.028-0.36 0.007-0.547-0.064-0.189-0.072-0.339-0.177-0.451-0.315-0.106-0.129-0.18-0.289-0.207-0.463l-0.001-0.005c-0.027-0.175-0.005-0.354 0.065-0.538 0.071-0.187 0.174-0.336 0.31-0.449 0.128-0.109 0.287-0.185 0.462-0.212l0.005-0.001c0.175-0.029 0.358-0.008 0.547 0.064 0.187 0.071 0.337 0.176 0.451 0.315 0.113 0.136 0.183 0.292 0.211 0.47 0.026 0.177 0.004 0.358-0.066 0.542zM4.197 11.642c0.052-0.137 0.068-0.269 0.048-0.397-0.023-0.134-0.082-0.251-0.165-0.346l0.001 0.001c-0.089-0.105-0.207-0.185-0.352-0.24-0.148-0.056-0.289-0.074-0.423-0.054-0.134 0.017-0.254 0.072-0.35 0.152l0.001-0.001c-0.102 0.082-0.179 0.19-0.23 0.324s-0.065 0.266-0.043 0.394c0.020 0.128 0.073 0.244 0.16 0.348s0.204 0.184 0.352 0.241c0.146 0.055 0.287 0.073 0.423 0.054s0.256-0.075 0.356-0.154l-0.001 0.001c0.1-0.083 0.175-0.19 0.225-0.321zM5.537 9.47c-0.092 0.147-0.21 0.26-0.352 0.337-0.122 0.065-0.266 0.103-0.42 0.103-0.020 0-0.039-0.001-0.059-0.002l0.003 0c-0.174-0.012-0.354-0.076-0.541-0.193s-0.322-0.25-0.407-0.4c-0.087-0.151-0.126-0.307-0.119-0.468s0.058-0.317 0.152-0.467c0.102-0.163 0.23-0.285 0.384-0.367 0.128-0.073 0.281-0.116 0.444-0.116 0.019 0 0.038 0.001 0.056 0.002l-0.003-0c0.176 0.008 0.351 0.065 0.522 0.172 0.173 0.109 0.302 0.24 0.386 0.396s0.122 0.321 0.114 0.497c-0.006 0.174-0.061 0.343-0.163 0.505zM5.6 10.737l-2.341-1.464 0.139-0.221 0.514 0.322 0.328 0.237 0.365 0.183 1.139 0.713-0.145 0.231zM5.322 9.358c0.076-0.122 0.117-0.247 0.122-0.376 0-0.006 0-0.012 0-0.019 0-0.13-0.034-0.253-0.094-0.359l0.002 0.004c-0.067-0.12-0.166-0.222-0.299-0.304s-0.266-0.127-0.401-0.133c-0.012-0.001-0.026-0.001-0.040-0.001-0.123 0-0.24 0.030-0.342 0.084l0.004-0.002c-0.116 0.060-0.212 0.151-0.289 0.273-0.071 0.108-0.115 0.239-0.121 0.38l-0 0.002c-0 0.006-0 0.012-0 0.019 0 0.13 0.034 0.253 0.094 0.359l-0.002-0.004c0.066 0.117 0.165 0.217 0.297 0.299s0.267 0.129 0.403 0.139c0.012 0.001 0.025 0.001 0.039 0.001 0.123 0 0.24-0.030 0.342-0.084l-0.004 0.002c0.115-0.064 0.211-0.156 0.287-0.278zM6.393 5.304c0.122-0.109 0.25-0.181 0.384-0.215 0.053-0.016 0.115-0.025 0.178-0.025 0.082 0 0.161 0.015 0.234 0.043l-0.004-0.002c0.139 0.047 0.274 0.144 0.403 0.288l0.782 0.872-0.203 0.182-0.764-0.852c-0.142-0.158-0.289-0.242-0.441-0.25-0.152-0.012-0.299 0.046-0.442 0.174-0.107 0.096-0.181 0.201-0.221 0.317-0.022 0.060-0.035 0.129-0.035 0.201 0 0.053 0.007 0.104 0.020 0.153l-0.001-0.004c0.030 0.117 0.096 0.233 0.198 0.348l0.708 0.789-0.203 0.182-1.347-1.5 0.195-0.174 0.369 0.412-0.101-0.049c-0.024-0.068-0.037-0.147-0.037-0.229s0.014-0.162 0.039-0.236l-0.002 0.005c0.048-0.157 0.145-0.3 0.29-0.43zM9.593 5.478c-0.167 0.099-0.34 0.152-0.519 0.157-0.004 0-0.009 0-0.013 0-0.179 0-0.347-0.047-0.492-0.129l0.005 0.003c-0.157-0.088-0.287-0.218-0.389-0.39-0.103-0.174-0.156-0.349-0.158-0.527-0-0.004-0-0.010-0-0.015 0-0.177 0.048-0.344 0.131-0.487l-0.002 0.005c0.087-0.153 0.216-0.28 0.385-0.381 0.172-0.102 0.346-0.155 0.522-0.159 0.010-0 0.021-0.001 0.033-0.001 0.171 0 0.332 0.046 0.47 0.127l-0.004-0.002c0.156 0.086 0.285 0.216 0.389 0.39 0.102 0.172 0.155 0.347 0.158 0.527 0 0.007 0 0.015 0 0.023 0 0.175-0.047 0.34-0.129 0.481l0.002-0.005c-0.090 0.155-0.219 0.282-0.388 0.383zM9.469 5.27c0.125-0.075 0.22-0.168 0.284-0.281 0.063-0.115 0.092-0.239 0.086-0.373-0.004-0.137-0.046-0.273-0.127-0.407-0.081-0.136-0.181-0.238-0.298-0.305-0.101-0.062-0.223-0.099-0.353-0.099-0.005 0-0.010 0-0.015 0h0.001c-0.131 0-0.258 0.037-0.381 0.111s-0.216 0.167-0.279 0.282c-0.058 0.1-0.092 0.22-0.092 0.348 0 0.008 0 0.017 0 0.025l-0-0.001c0.003 0.135 0.045 0.271 0.127 0.407 0.080 0.134 0.179 0.236 0.298 0.305 0.117 0.067 0.242 0.1 0.372 0.1 0.14-0.004 0.269-0.045 0.379-0.114l-0.003 0.002zM11.223 4.586l-1.353-1.678 0.248-0.082 1.241 1.561-0.113 0.037 0.090-1.998 0.223-0.073 1.252 1.557-0.113 0.037 0.083-1.996 0.237-0.078-0.096 2.153-0.244 0.080-1.192-1.46 0.077-0.025-0.096 1.883-0.244 0.080zM15.392 3.708c-0.023 0.001-0.049 0.002-0.076 0.002-0.142 0-0.279-0.019-0.41-0.053l0.011 0.002c-0.15-0.042-0.269-0.098-0.357-0.166l0.114-0.22c0.084 0.058 0.192 0.107 0.322 0.148 0.104 0.031 0.223 0.049 0.347 0.049 0.021 0 0.041-0.001 0.061-0.001l-0.003 0c0.192-0.008 0.329-0.043 0.411-0.106 0.082-0.065 0.121-0.147 0.116-0.247-0.003-0.074-0.030-0.131-0.080-0.17-0.048-0.041-0.111-0.071-0.188-0.088-0.072-0.019-0.16-0.035-0.25-0.046l-0.009-0.001c-0.125-0.015-0.223-0.030-0.32-0.047l0.033 0.005c-0.097-0.017-0.183-0.044-0.264-0.080l0.007 0.003c-0.078-0.037-0.144-0.091-0.194-0.156l-0.001-0.001c-0.049-0.067-0.076-0.158-0.081-0.273-0-0.008-0.001-0.018-0.001-0.027 0-0.101 0.030-0.195 0.082-0.274l-0.001 0.002c0.058-0.090 0.144-0.161 0.26-0.215 0.118-0.056 0.263-0.088 0.434-0.095 0.018-0.001 0.039-0.001 0.060-0.001 0.118 0 0.234 0.014 0.344 0.040l-0.010-0.002c0.132 0.028 0.241 0.068 0.328 0.121l-0.11 0.224c-0.084-0.054-0.182-0.095-0.288-0.117l-0.006-0.001c-0.079-0.019-0.169-0.030-0.262-0.030-0.016 0-0.033 0-0.049 0.001l0.002-0c-0.182 0.008-0.315 0.045-0.399 0.113-0.082 0.065-0.121 0.146-0.116 0.243 0.003 0.077 0.029 0.136 0.077 0.177 0.050 0.041 0.114 0.073 0.192 0.096 0.080 0.020 0.167 0.035 0.259 0.047 0.095 0.011 0.19 0.026 0.283 0.046 0.095 0.016 0.182 0.042 0.261 0.077 0.081 0.032 0.146 0.082 0.195 0.149 0.051 0.065 0.079 0.152 0.084 0.262 0.005 0.118-0.024 0.221-0.087 0.311-0.060 0.087-0.152 0.158-0.275 0.212-0.121 0.051-0.269 0.081-0.446 0.088zM17.879 1.762c0.163 0.021 0.301 0.072 0.414 0.151 0.116 0.077 0.201 0.184 0.252 0.32 0.054 0.137 0.069 0.301 0.043 0.494l-0.153 1.161-0.27-0.036 0.15-1.135c0.028-0.211-0.004-0.376-0.097-0.497-0.090-0.123-0.23-0.197-0.42-0.222-0.142-0.019-0.27-0.006-0.384 0.038s-0.208 0.119-0.275 0.214l-0.001 0.002c-0.070 0.099-0.115 0.225-0.135 0.378l-0.139 1.050-0.27-0.035 0.373-2.825 0.27 0.036-0.181 1.374-0.040-0.11c0.081-0.134 0.201-0.238 0.344-0.297l0.005-0.002c0.151-0.065 0.322-0.085 0.515-0.060zM19.892 4.322c-0.184-0.063-0.336-0.161-0.456-0.293-0.111-0.127-0.191-0.283-0.226-0.457l-0.001-0.006c-0.034-0.177-0.019-0.359 0.045-0.548 0.065-0.191 0.165-0.345 0.3-0.462 0.126-0.111 0.283-0.19 0.456-0.223l0.006-0.001c0.173-0.033 0.354-0.017 0.54 0.046 0.189 0.064 0.342 0.163 0.459 0.294 0.114 0.124 0.195 0.28 0.228 0.454l0.001 0.006c0.035 0.174 0.020 0.357-0.045 0.548-0.065 0.189-0.164 0.343-0.3 0.462-0.126 0.113-0.283 0.193-0.457 0.227l-0.006 0.001c-0.176 0.032-0.357 0.016-0.544-0.048zM19.97 4.093c0.138 0.047 0.271 0.058 0.398 0.034 0.128-0.026 0.241-0.085 0.34-0.176 0.102-0.092 0.178-0.212 0.228-0.36 0.051-0.15 0.064-0.292 0.040-0.425-0.022-0.133-0.080-0.25-0.163-0.344l0.001 0.001c-0.085-0.099-0.195-0.172-0.331-0.218s-0.268-0.056-0.396-0.029c-0.133 0.026-0.25 0.087-0.343 0.172l0.001-0.001c-0.101 0.090-0.177 0.21-0.228 0.36-0.051 0.148-0.064 0.289-0.040 0.425 0.025 0.133 0.080 0.249 0.165 0.349 0.086 0.097 0.195 0.168 0.329 0.213zM22.13 5.325c-0.151-0.087-0.268-0.2-0.35-0.339-0.075-0.129-0.119-0.283-0.119-0.448 0-0.008 0-0.016 0-0.024l-0 0.001c0.006-0.174 0.064-0.356 0.173-0.547s0.238-0.331 0.385-0.421c0.148-0.092 0.302-0.138 0.464-0.136s0.319 0.046 0.472 0.134c0.166 0.096 0.293 0.219 0.381 0.37 0.091 0.15 0.135 0.314 0.132 0.493-0.001 0.176-0.052 0.352-0.153 0.527-0.102 0.178-0.229 0.311-0.382 0.401-0.138 0.083-0.304 0.133-0.482 0.133-0.004 0-0.008-0-0.012-0h0.001c-0.174 0-0.345-0.048-0.511-0.143zM20.866 5.435l1.379-2.392 0.226 0.13-0.303 0.526-0.225 0.336-0.17 0.372-0.671 1.165-0.236-0.136zM22.234 5.106c0.124 0.071 0.251 0.108 0.381 0.108 0.137-0.002 0.265-0.041 0.374-0.107l-0.003 0.002c0.118-0.071 0.216-0.174 0.294-0.31s0.118-0.271 0.119-0.406c0-0.004 0-0.008 0-0.013 0-0.133-0.035-0.257-0.097-0.365l0.002 0.004c-0.064-0.114-0.159-0.207-0.283-0.278-0.11-0.067-0.244-0.106-0.386-0.107h-0c-0.137 0.002-0.265 0.041-0.374 0.107l0.003-0.002c-0.114 0.070-0.211 0.173-0.288 0.308s-0.119 0.271-0.124 0.407c-0 0.004-0 0.008-0 0.012 0 0.133 0.035 0.257 0.097 0.365l-0.002-0.004c0.068 0.113 0.164 0.205 0.288 0.277zM26.349 6.035c0.114 0.118 0.19 0.243 0.23 0.376 0.020 0.060 0.032 0.129 0.032 0.201 0 0.074-0.012 0.145-0.035 0.211l0.001-0.005c-0.042 0.14-0.134 0.278-0.274 0.413l-0.844 0.813-0.189-0.196 0.824-0.794c0.153-0.147 0.231-0.297 0.234-0.449 0.006-0.152-0.057-0.297-0.191-0.435-0.1-0.103-0.208-0.173-0.325-0.21-0.054-0.018-0.116-0.028-0.181-0.028-0.060 0-0.119 0.009-0.174 0.026l0.004-0.001c-0.116 0.034-0.23 0.105-0.341 0.211l-0.763 0.735-0.189-0.196 1.452-1.399 0.181 0.188-0.398 0.384 0.045-0.102c0.075-0.029 0.163-0.046 0.254-0.046 0.073 0 0.144 0.011 0.211 0.031l-0.005-0.001c0.159 0.043 0.305 0.134 0.441 0.274zM26.339 9.304c-0.105-0.164-0.163-0.335-0.174-0.513-0.001-0.014-0.001-0.030-0.001-0.046 0-0.167 0.041-0.325 0.114-0.463l-0.003 0.005c0.083-0.16 0.209-0.293 0.377-0.401 0.17-0.109 0.344-0.167 0.522-0.175 0.014-0.001 0.030-0.001 0.046-0.001 0.166 0 0.323 0.042 0.46 0.116l-0.005-0.003c0.156 0.082 0.288 0.207 0.394 0.372 0.108 0.168 0.167 0.34 0.176 0.516 0.001 0.019 0.002 0.042 0.002 0.064 0 0.16-0.040 0.311-0.112 0.442l0.002-0.005c-0.081 0.158-0.206 0.292-0.377 0.401-0.168 0.108-0.342 0.166-0.522 0.175-0.016 0.001-0.035 0.002-0.054 0.002-0.165 0-0.32-0.041-0.455-0.114l0.005 0.003c-0.158-0.084-0.29-0.21-0.396-0.375zM26.543 9.174c0.079 0.123 0.176 0.214 0.29 0.274 0.093 0.048 0.203 0.076 0.319 0.076 0.020 0 0.040-0.001 0.059-0.002l-0.003 0c0.137-0.009 0.272-0.055 0.403-0.14 0.134-0.086 0.232-0.188 0.295-0.308 0.065-0.117 0.093-0.241 0.086-0.37-0.005-0.131-0.046-0.256-0.123-0.377s-0.175-0.21-0.292-0.269c-0.095-0.051-0.208-0.081-0.328-0.081-0.017 0-0.033 0.001-0.049 0.002l0.002-0c-0.135 0.007-0.269 0.054-0.403 0.14-0.132 0.084-0.23 0.187-0.295 0.308-0.055 0.101-0.088 0.221-0.088 0.349 0 0.009 0 0.019 0.001 0.028l-0-0.001c0.009 0.139 0.054 0.267 0.126 0.374l-0.002-0.003zM27.278 10.903l1.631-1.407 0.090 0.245-1.518 1.292-0.041-0.112 2.001 0.023 0.081 0.22-1.514 1.303-0.041-0.112 1.998 0.016 0.086 0.234-2.156-0.024-0.089-0.242 1.419-1.239 0.028 0.076-1.886-0.033-0.089-0.242z"></path>
</symbol>
<!-- Thank you modal -->
<symbol id="thank-you-plants" viewBox="0 0 42 32">
<path fill="#f58b3d" style="fill: var(--color1, #f58b3d)" opacity="0.25453134912100006" d="M39.13 25.599c0.542 3.691-12.608 6.099-23.927 4.419s-16.511-8.242-11.11-11.738c5.401-3.496 34.495 3.628 35.037 7.319z"></path>
<path fill="#f58b3d" style="fill: var(--color1, #f58b3d)" d="M22.863 10.218c0.205-0.142 0.522-0.052 0.728 0.032 0.079 0.032 0.282 0.136 0.433 0.253-0.020-0.081-0.038-0.162-0.053-0.245-0.064-0.338-0.108-0.682-0.128-1.025-0.006-0.089 0.002-0.189 0.009-0.29v-0c0.002-0.034 0.005-0.069 0.007-0.103-0.008-0.008-0.014-0.019-0.016-0.034-0.001 0.006-0.001 0.011-0.002 0.015-0 0.006-0.001 0.009-0.002 0.010s-0.003-0.002-0.007-0.008c-0.001-0.002-0.003-0.005-0.005-0.007-0.152-0.207-0.28-0.441-0.298-0.698-0.015-0.218 0.182-0.63 0.46-0.344 0.125 0.127 0.092 1.022-0.095 1.077 0.050 0.296 0.113 0.592 0.192 0.884 0.012-0.002 0.024-0.002 0.036-0.001-0.001-0.073-0.001-0.152 0.002-0.179 0.028-0.235 0.244-0.711 0.587-0.619 0.263 0.071 0.102 0.364 0.012 0.492-0.144 0.206-0.308 0.296-0.514 0.403-0.004 0.044-0.035 0.070-0.073 0.079 0.139 0.472 0.32 0.932 0.558 1.367l0.006-0.028c0.030-0.132 0.066-0.286 0.088-0.318 0.117-0.169 0.375-0.376 0.613-0.276 0.5 0.21-0.043 0.815-0.469 0.881-0.018 0.022-0.036 0.040-0.056 0.050 0.083 0.131 0.171 0.26 0.266 0.385 0.142 0.188 0.295 0.376 0.454 0.562 0.005-0.146 0.068-0.471 0.086-0.506 0.109-0.212 0.424-0.431 0.679-0.28 0.287 0.17 0.027 0.491-0.137 0.637-0.067 0.060-0.399 0.278-0.516 0.279 0.386 0.44 0.813 0.872 1.246 1.289-0.036-0.187-0.083-0.7-0.078-0.757 0.027-0.294 0.239-0.765 0.658-0.65 0.406 0.111 0.226 0.6 0.087 0.833-0.084 0.141-0.201 0.284-0.341 0.383-0.025 0.018-0.058 0.032-0.091 0.047-0.040 0.017-0.080 0.035-0.105 0.058-0.023 0.021-0.030 0.044-0.037 0.067-0.007 0.025-0.015 0.049-0.041 0.070 0.234 0.224 0.47 0.444 0.703 0.657 0.11 0.101 0.222 0.2 0.334 0.297 0.062-0.023 0.15 0.007 0.145 0.087-0.001 0.012-0.004 0.022-0.008 0.031 0.085 0.072 0.172 0.144 0.258 0.216-0.002-0.021-0.001-0.050 0.003-0.090-0.062 0.081-0.060-0.037-0.058-0.127 0.001-0.032 0.001-0.060-0.001-0.075-0.009-0.058-0.021-0.115-0.033-0.172-0.025-0.122-0.050-0.243-0.049-0.369 0.003-0.267 0.188-0.715 0.579-0.556 0.359 0.146 0.229 0.542 0.093 0.79-0.086 0.157-0.203 0.297-0.326 0.431-0.022 0.024-0.046 0.056-0.070 0.089-0.036 0.048-0.071 0.095-0.097 0.112 0.334 0.272 0.675 0.537 1.017 0.801v0c0.153 0.118 0.306 0.237 0.458 0.356 0.007-0.026 0.012-0.052 0.017-0.076-0.009 0.010-0.022 0.014-0.039 0.013-0.004-0.020-0.011-0.047-0.018-0.079-0.094-0.39-0.38-1.58 0.395-1.349 0.568 0.169 0.167 1.205-0.257 1.567 0.257 0.202 0.512 0.407 0.761 0.618 0.18 0.153 0.355 0.311 0.523 0.474-0.087-0.211-0.169-0.485-0.115-0.702 0.078-0.317 0.445-0.616 0.803-0.436 0.446 0.226 0.103 0.534-0.219 0.823-0.165 0.148-0.323 0.29-0.369 0.414 0.534 0.535 0.99 1.13 1.295 1.807 0.331 0.737 0.639 1.726 0.469 2.55 0.031-0.362-0.103-0.817-0.197-1.137-0.013-0.044-0.025-0.084-0.036-0.122-0.142-0.496-0.343-0.978-0.608-1.429-0.425-0.723-0.987-1.336-1.635-1.893-0.148 0.047-0.308 0.134-0.441 0.206-0.081 0.044-0.153 0.083-0.204 0.103-0.248 0.098-0.724 0.237-0.882-0.070-0.155-0.302 0.241-0.471 0.487-0.539 0.238-0.065 0.452-0.057 0.673-0.004-0.343-0.277-0.695-0.546-1.046-0.814v-0c-0.065-0.049-0.129-0.099-0.194-0.148-0.089 0.067-0.188 0.163-0.293 0.266-0.333 0.325-0.727 0.71-1.078 0.396-0.531-0.475 0.485-0.958 0.917-0.92 0.053 0.005 0.105 0.015 0.155 0.029-0.441-0.341-0.876-0.69-1.287-1.062-0.074 0.012-0.191 0.111-0.332 0.23-0.317 0.267-0.753 0.634-1.082 0.345-0.237-0.209-0.156-0.534 0.073-0.72s0.564-0.186 0.848-0.124c0.123 0.027 0.236 0.079 0.341 0.142 0.005 0 0.009 0 0.013 0.001-0.404-0.371-0.811-0.75-1.203-1.142-0.007 0.002-0.014 0.004-0.021 0.006-0.024 0.026-0.063 0.036-0.1 0.030-0.020 0.006-0.041 0.013-0.062 0.019-0.31 0.098-0.709 0.223-1.018 0.169-0.228-0.040-0.434-0.208-0.241-0.416 0.156-0.169 0.581-0.145 0.789-0.105 0.101 0.020 0.211 0.076 0.322 0.133 0.046 0.024 0.093 0.048 0.139 0.069 0.012-0.022 0.033-0.036 0.056-0.043-0.387-0.394-0.756-0.801-1.091-1.227-0.101 0.014-0.214 0.055-0.33 0.097-0.279 0.101-0.578 0.209-0.793-0.024-0.317-0.344 0.279-0.544 0.563-0.511 0.096 0.011 0.19 0.036 0.281 0.068-0.244-0.35-0.43-0.724-0.56-1.117-0.001 0.001-0.002 0.001-0.004 0.002v0c-0.002 0.001-0.004 0.002-0.006 0.003 0.002-0.001 0.004-0.002 0.006-0.003s0.002-0.002 0.004-0.002c-0.013-0.039-0.026-0.079-0.037-0.118-0.022-0.011-0.043-0.020-0.053-0.023 0.129 0.081-0.415 0.121-0.516 0.128-0.225 0.016-0.527 0.023-0.692-0.146-0.139-0.141-0.13-0.35 0.039-0.468zM33.223 22.106c-0.010 0.119-0.033 0.229-0.078 0.319 0.033-0.103 0.059-0.209 0.078-0.319z"></path>
<path fill="#f1f447" style="fill: var(--color2, #f1f447)" opacity="0.2" d="M12.645 2.591c-0.149-0.103-0.381-0.037-0.532 0.024-0.058 0.023-0.206 0.098-0.316 0.183 0.015-0.058 0.028-0.117 0.039-0.177 0.047-0.244 0.079-0.494 0.094-0.741 0.004-0.065-0.001-0.137-0.006-0.21v-0c-0.002-0.025-0.004-0.050-0.005-0.074 0.006-0.006 0.010-0.014 0.012-0.025 0.001 0.005 0.001 0.008 0.001 0.011 0 0.004 0.001 0.007 0.001 0.007s0.002-0.002 0.005-0.006c0.001-0.002 0.002-0.003 0.004-0.005 0.111-0.15 0.205-0.319 0.218-0.504 0.011-0.157-0.132-0.455-0.336-0.249-0.091 0.092-0.068 0.739 0.069 0.778-0.037 0.214-0.083 0.428-0.14 0.64-0.009-0.001-0.017-0.002-0.026-0 0.001-0.053 0.001-0.11-0.001-0.13-0.020-0.17-0.178-0.514-0.428-0.447-0.192 0.052-0.075 0.263-0.009 0.356 0.105 0.149 0.224 0.214 0.375 0.291 0.003 0.032 0.026 0.051 0.053 0.057-0.101 0.341-0.234 0.674-0.408 0.988l-0.005-0.020c-0.022-0.095-0.048-0.207-0.064-0.23-0.085-0.122-0.274-0.271-0.448-0.199-0.365 0.152 0.031 0.589 0.342 0.637 0.013 0.016 0.027 0.029 0.041 0.037-0.060 0.095-0.125 0.188-0.194 0.278-0.104 0.136-0.215 0.272-0.332 0.407-0.004-0.106-0.050-0.341-0.063-0.366-0.080-0.153-0.309-0.311-0.496-0.202-0.21 0.123-0.020 0.355 0.1 0.46 0.049 0.043 0.291 0.201 0.377 0.202-0.282 0.318-0.594 0.631-0.911 0.933 0.026-0.135 0.061-0.506 0.057-0.548-0.020-0.213-0.175-0.553-0.48-0.47-0.297 0.080-0.166 0.434-0.064 0.603 0.061 0.102 0.146 0.206 0.249 0.277 0.018 0.013 0.043 0.023 0.067 0.034 0.029 0.013 0.058 0.025 0.077 0.042 0.017 0.015 0.022 0.032 0.027 0.049s0.011 0.035 0.030 0.050c-0.171 0.162-0.344 0.321-0.513 0.476-0.080 0.073-0.162 0.144-0.244 0.215-0.045-0.017-0.109 0.005-0.106 0.063 0 0.008 0.003 0.016 0.005 0.022-0.062 0.052-0.125 0.104-0.189 0.156 0.002-0.015 0.001-0.036-0.002-0.065 0.046 0.058 0.044-0.027 0.042-0.092-0-0.023-0.001-0.043 0.001-0.054 0.007-0.042 0.015-0.083 0.024-0.124 0.019-0.088 0.037-0.176 0.036-0.267-0.002-0.193-0.137-0.517-0.423-0.402-0.262 0.106-0.167 0.392-0.068 0.571 0.063 0.114 0.148 0.215 0.238 0.312 0.016 0.017 0.034 0.041 0.051 0.064 0.026 0.034 0.052 0.068 0.071 0.081-0.244 0.197-0.493 0.388-0.742 0.58l-0 0c-0.112 0.086-0.223 0.171-0.335 0.258-0.005-0.019-0.009-0.038-0.012-0.055 0.007 0.007 0.016 0.010 0.029 0.010 0.003-0.014 0.008-0.034 0.014-0.057 0.069-0.282 0.278-1.143-0.288-0.976-0.415 0.123-0.123 0.871 0.187 1.133-0.188 0.146-0.374 0.295-0.556 0.447-0.131 0.11-0.259 0.225-0.382 0.343 0.064-0.153 0.123-0.351 0.084-0.508-0.057-0.229-0.325-0.445-0.586-0.315-0.326 0.163-0.075 0.386 0.16 0.595 0.12 0.107 0.236 0.21 0.269 0.299-0.39 0.387-0.723 0.817-0.946 1.307-0.242 0.533-0.467 1.248-0.343 1.844-0.023-0.262 0.075-0.591 0.144-0.822 0.009-0.031 0.018-0.061 0.026-0.089 0.104-0.358 0.251-0.707 0.445-1.033 0.311-0.523 0.721-0.967 1.195-1.37 0.108 0.034 0.225 0.097 0.322 0.149 0.059 0.032 0.111 0.060 0.149 0.074 0.181 0.070 0.529 0.171 0.644-0.051 0.114-0.218-0.176-0.341-0.355-0.389-0.173-0.047-0.33-0.041-0.492-0.003 0.251-0.201 0.508-0.395 0.764-0.589 0.047-0.036 0.094-0.071 0.142-0.107 0.065 0.048 0.137 0.118 0.214 0.192 0.243 0.235 0.53 0.513 0.787 0.286 0.388-0.344-0.353-0.692-0.669-0.665-0.039 0.003-0.076 0.011-0.113 0.021 0.322-0.247 0.64-0.499 0.94-0.769 0.054 0.009 0.139 0.080 0.242 0.166h0c0.231 0.193 0.55 0.458 0.79 0.249 0.173-0.151 0.114-0.386-0.053-0.521s-0.412-0.135-0.619-0.089c-0.089 0.020-0.172 0.057-0.249 0.103-0.003 0-0.006 0-0.010 0 0.295-0.268 0.592-0.542 0.879-0.826 0.005 0.001 0.010 0.003 0.015 0.004 0.017 0.019 0.046 0.026 0.073 0.022 0.014 0.004 0.029 0.009 0.044 0.014l0 0c0.227 0.070 0.518 0.161 0.744 0.122 0.166-0.029 0.317-0.151 0.177-0.301-0.114-0.122-0.425-0.104-0.576-0.075-0.074 0.014-0.154 0.055-0.235 0.096-0.034 0.017-0.068 0.035-0.101 0.050-0.009-0.016-0.024-0.026-0.041-0.031 0.283-0.285 0.552-0.58 0.797-0.887 0.074 0.010 0.156 0.040 0.241 0.070 0.204 0.073 0.422 0.151 0.579-0.018 0.232-0.249-0.204-0.393-0.411-0.37-0.070 0.008-0.139 0.026-0.205 0.050 0.178-0.253 0.314-0.524 0.41-0.808 0.001 0 0.002 0.001 0.003 0.001s0.003 0.001 0.004 0.002c-0.002-0.001-0.003-0.001-0.004-0.002s-0.002-0.001-0.003-0.002c0.010-0.028 0.019-0.057 0.027-0.086 0.016-0.008 0.031-0.014 0.039-0.017-0.094 0.059 0.303 0.087 0.377 0.092 0.164 0.012 0.384 0.016 0.505-0.105 0.101-0.102 0.095-0.253-0.028-0.338zM5.068 11.167c0.007 0.080 0.029 0.152 0.071 0.212-0.031-0.068-0.054-0.139-0.071-0.212z"></path>
<path fill="#b45661" style="fill: var(--color3, #b45661)" opacity="0.48999999999999994" d="M28.784 16.63c0.805-0.038 1.802 0.39 1.888 1.187 0.062 0.579 0.043 1.156 0.14 1.734 0.077 0.462 0.24 0.906 0.463 1.326 0.214 0.405 0.659 0.749 0.775 1.182 0.074 0.276 0.032 0.663-0.069 0.933-0.123 0.328-0.058 0.302 0.188 0.577 0.482 0.539 0.917 1.091 1.224 1.735 0.443 0.927 0.733 2.010 0.569 3.025-0.021 0.129-0.046 0.591-0.241 0.624-0.218 0.036-0.116-0.228-0.104-0.314 0.074-0.545 0.14-1.022 0.051-1.575-0.345-2.136-2.028-3.543-3.125-5.355-0.060-0.093-0.188-0.316-0.276-0.463-0.14-0.232-0.28-0.673-0.469-0.845-0.356-0.324-0.029 0.327 0.041 0.451 0.088 0.157 0.184 0.324 0.274 0.462 0.411 0.639 0.87 1.336 1.295 1.994-1.837 0.381-3.131-1.629-3.624-2.95-0.406-1.089-0.892-3.634 1.001-3.727z"></path>
<path fill="#e7502f" style="fill: var(--color4, #e7502f)" opacity="0.48999999999999994" d="M39.581 14.609c-1.346 0.097-2.211 0.906-2.613 2.037-0.217 0.61-0.242 1.236-0.362 1.862-0.181 0.942-0.572 1.657-1.334 2.328-0.236 0.208-0.41 0.421-0.534 0.65-0.245 0.228-0.459 0.486-0.616 0.802-0.201 0.403-0.257 0.886-0.026 1.288 0.062 0.108 0.218 0.325 0.379 0.423-0.603 1.168-0.934 2.448-0.897 3.726 0.023 0.771 0.064 1.543 0.112 2.314 0.013 0.207 0.087 0.549 0.198 0.202 0.102-0.318-0.026-0.816-0.038-1.147-0.057-1.615-0.107-3.084 0.624-4.593 0.077-0.158 0.158-0.315 0.242-0.471 0.005-0.003 0.010-0.006 0.014-0.009 0.003 0.002 0.006 0.005 0.009 0.007 0.005-0.009 0.013-0.019 0.021-0.031 0.024-0.023 0.046-0.052 0.066-0.084 0.065-0.082 0.138-0.178 0.138-0.231 0-0-0-0.001-0-0.001 0.452-0.672 0.97-1.307 1.499-1.929-0.004 0.005 0.574-0.712 0.485-0.316-0.043 0.191-0.468 0.554-0.64 0.756-0.38 0.45-0.826 1.020-1.196 1.571-0.050 0.026-0.12 0.154-0.171 0.249-0.028 0.048-0.054 0.097-0.080 0.14 1.313 0.395 2.335-0.4 3.031-1.326 0.001-0.001 0.002-0.002 0.002-0.003 0.212-0.256 0.429-0.509 0.7-0.711 0.453-0.337 0.937-0.397 1.471-0.563 1.455-0.453 2.074-2.169 2.27-3.442 0.222-1.437-0.863-3.64-2.756-3.498z"></path>
<path fill="#e7502f" style="fill: var(--color4, #e7502f)" opacity="0.48999999999999994" d="M36.921 10.585c-1.382 1.309-2.050 3.125-2.578 4.832-0.591 1.906-0.981 3.842-0.996 5.825-0.010 1.302-0.049 2.613 0.035 3.914 0.030 0.462 0.080 0.925 0.161 1.382 0.007 0.038 0.187 1.058 0.359 0.82 0.098-0.135-0.185-1.058-0.206-1.212-0.12-0.866-0.148-1.739-0.142-2.611 0.010-1.436-0.037-2.865 0.123-4.297 0.024-0.214 0.043-0.438 0.098-0.647 0.059-0.222-0.016-0.125 0.177-0.213 0.187-0.085 0.419-0.073 0.613-0.181 0.771-0.426 1.166-1.519 1.473-2.236 0.351-0.82 0.565-1.695 0.735-2.559 0.125-0.634 0.215-1.265 0.265-1.907 0.016-0.202 0.017-0.414 0.061-0.613 0.012-0.054 0.071-0.149 0.069-0.196-0.005-0.101-0.071-0.16-0.077-0.244-0.058 0.047-0.115 0.096-0.17 0.146z"></path>
<path fill="#e7502f" style="fill: var(--color4, #e7502f)" opacity="0.48999999999999994" d="M29.385 28.026c0 2.165 1.928 3.92 4.307 3.92s4.307-1.755 4.307-3.92z"></path>
<path fill="#b45661" style="fill: var(--color3, #b45661)" opacity="0.48999999999999994" d="M36.644 24.594c1.066-0.071 2.257 0.711 2.771 1.526 0.414 0.657 0.345 1.519 0.089 2.217-0.172 0.467-0.546 1.133-1.17 1.14-0.781 0.008-0.818-0.87-0.834-1.383-0.020-0.683-0.115-1.277-0.706-1.742-0.073-0.057-0.15-0.111-0.226-0.165-0.068-0.048-0.136-0.095-0.201-0.146-0.010-0.008-0.021-0.016-0.032-0.024-0.209-0.16-0.428-0.328-0.455-0.591-0.039-0.382 0.198-0.45 0.56-0.38 0.012 0.002 0.044 0.013 0.087 0.028 0.185 0.064 0.579 0.2 0.504 0.037-0.028-0.061-0.13-0.11-0.26-0.146-0.335-0.033-0.734-0.071-0.849-0.048-1.239 0.247-1.721 1.809-1.849 2.801-0.014 0.107-0.025 0.215-0.035 0.322h-0.228c0.016-0.26 0.036-0.519 0.084-0.776 0.183-0.983 0.754-2.426 2.006-2.586 0.046-0.006 0.216-0.007 0.422 0.004 0.098-0.050 0.207-0.080 0.322-0.087z"></path>
<path fill="#b45661" style="fill: var(--color3, #b45661)" opacity="0.25" d="M10.516 9.471c0.248-0.322 0.708-1.139 1.057-1.254 0.225-0.074 0.159 0.692 0.162 0.838 0.011 0.565-0.050 1.127-0.124 1.687-0.135 1.011-0.574 1.911-1.178 2.771-0.31 0.443-0.675 0.891-1.179 1.167-0.232 0.127-0.511 0.149-0.741 0.258-0.267 0.128-0.122 0.024-0.242 0.278-0.167 0.351-0.22 0.805-0.298 1.18-0.355 1.722-1.214 10.823-1.065 12.574 0.013 0.155-0.225 0.192-0.237 0.003-0.063-1.005 0.483-7.963 0.758-10.238s0.554-4.286 0.834-5.073c0.339-0.955 0.952-2.104 1.461-2.994 0.237-0.414 0.495-0.813 0.79-1.196z"></path>
<path fill="#f1f447" style="fill: var(--color2, #f1f447)" opacity="0.25" d="M12.357 20.631c0.645-0.431 1.344 0.383 0.76 0.814-0.323 0.238-0.66 0.154-0.85-0.045-0.123 0.137-0.239 0.28-0.35 0.401-0.338 0.368-0.657 0.745-0.963 1.131-0.634 0.801-1.177 1.648-1.746 2.479-0.561 0.82-1.117 1.645-1.625 2.486-0.431 0.713-1.004 1.551-1.152 2.332 0.224-1.657 1.072-3.249 2.083-4.71 1.002-1.449 2.153-3.031 3.705-4.174-0.158-0.211-0.162-0.513 0.138-0.713z"></path>
<path fill="#b45661" style="fill: var(--color3, #b45661)" opacity="0.25" d="M0.113 16.59c0.361 0.064 0.951 0.808 1.249 1.091 0.354 0.337 0.675 0.695 0.977 1.071 0.651 0.809 1.234 1.669 1.729 2.566 0.807 1.462 1.454 2.963 1.924 4.556 0.287 0.975 0.473 1.985 0.584 2.988 0.021 0.189 0.239 1.648-0.075 1.687-0.282 0.035-0.195-1.108-0.209-1.263-0.154-1.754-0.616-3.461-1.257-5.114-0.14-0.36-0.27-0.801-0.493-1.125-0.161-0.233-0.001-0.152-0.284-0.24-0.243-0.076-0.52-0.057-0.769-0.15-0.541-0.202-0.973-0.593-1.353-0.987-0.737-0.766-1.322-1.594-1.626-2.575-0.169-0.544-0.324-1.091-0.41-1.652-0.022-0.145-0.218-0.894 0.015-0.852z"></path>
<path fill="#e7502f" style="fill: var(--color4, #e7502f)" opacity="0.25" d="M1.538 4.223c1.36 2.147 2.478 4.504 3.199 6.893 0.437 1.447 0.743 2.932 1.047 4.406 0.47 2.282 0.915 4.565 1.042 6.888 0.127 2.336 0.379 5.031-0.462 7.282 0.42-2.285 0.020-4.717-0.051-7.016-0.034-1.097-0.132-2.184-0.26-3.275-0.125-1.058-0.329-2.112-0.518-3.162-0.092-0.511-0.19-1.022-0.288-1.532-0.030-0.152-0.042-0.604-0.148-0.708s-0.652-0.147-0.823-0.224c-0.345-0.155-0.669-0.374-0.955-0.607-0.55-0.445-1.028-1.027-1.406-1.6-0.874-1.327-1.223-2.946-1.205-4.483 0.003-0.298 0.531-3.511 0.319-3.555 0.013-0.014 0.025-0.028 0.036-0.042 0.16 0.244 0.318 0.49 0.474 0.737z"></path>
<path fill="#e7502f" style="fill: var(--color4, #e7502f)" opacity="0.25" d="M16.218 11.965c0.021-0.028 0.158-0.219 0.089-0.207 0.14-0.025-0.193 0.211 0.156 0.066-0.166 0.142-0.070 0.327-0.068 0.519 0.004 0.311-0.054 0.62-0.118 0.924-0.102 0.481-0.253 0.949-0.473 1.397-0.48 0.976-1.294 1.915-2.261 2.524-0.477 0.301-0.945 0.404-1.489 0.542-0.344 0.088-0.371 0.249-0.554 0.553-0.38 0.632-0.753 1.262-1.088 1.916-0.4 0.781-0.788 1.562-1.155 2.356-1.234 2.675-2.239 5.447-2.766 8.316-0.013-1.69 0.417-3.431 0.959-5.043 0.395-1.174 0.909-2.306 1.457-3.426 0.133-0.271 0.334-0.62 0.391-0.92 0.039-0.21-0.081-0.412-0.137-0.633-0.216-0.861-0.2-1.826-0.011-2.692 0.209-0.955 0.812-1.398 1.834-1.533 0.373-0.049 0.848-0.031 1.191-0.176 0.373-0.158 0.527-0.677 0.739-1.009 0.57-0.894 1.247-1.752 2.024-2.506 0.215-0.209 0.447-0.401 0.692-0.58 0.155-0.113 0.482-0.251 0.588-0.39z"></path>
<path fill="#f1f447" style="fill: var(--color2, #f1f447)" opacity="0.25" d="M4.475 29.354c-0.026-0.162 0.112-0.308 0.292-0.308h3.624c0.18 0 0.318 0.146 0.292 0.308l-0.28 1.728c-0.085 0.527-0.582 0.917-1.167 0.917h-1.313c-0.585 0-1.082-0.39-1.168-0.917l-0.28-1.728z"></path>
<path fill="#f58b3d" style="fill: var(--color1, #f58b3d)" d="M1.5 29.93c0 1.143 0.099 2.070 1.43 2.070s1.43-0.927 1.43-2.070z"></path>
<path fill="#f58b3d" style="fill: var(--color1, #f58b3d)" d="M3.325 29.217c-0.049 0.077-0.092 0.155-0.131 0.234-0.001-0.164 0.009-0.328 0.036-0.495 0.046-0.286 0.117-0.571 0.184-0.855 0.048-0.204 0.045-0.571 0.226-0.734 0.050-0.035 0.062 0.034 0.062 0.064 0.001 0.006-0-0.122-0.049-0.1-0.287 0.135-0.381 0.56-0.473 0.773-0.134 0.31-0.248 0.628-0.296 0.951-0.012 0.082-0.018 0.163-0.020 0.245-0.010-0.022-0.019-0.044-0.029-0.066-0.166-0.354-0.39-0.7-0.669-1.018-0.069-0.078-0.933-0.852-1-0.733 0.007 0.017 0.021 0.031 0.042 0.043 0.001 0.001 0.001 0.001 0.001-0.001 0.051 0.075 0.195 0.19 0.24 0.255 0.113 0.165 0.201 0.339 0.29 0.51 0.189 0.362 0.364 0.727 0.534 1.094 0.039 0.085 0.081 0.17 0.123 0.255-0.433-0.569-1.011-1.085-1.807-1.38 0.272 0.126 0.45 0.362 0.633 0.544 0.221 0.219 0.454 0.431 0.676 0.65 0.262 0.258 0.569 0.529 0.821 0.814 0.244 0.466 0.48 0.932 0.627 1.421-0.060-0.169-0.005-0.403-0.015-0.58-0.008-0.141-0.026-0.281-0.051-0.421 0.031 0.063 0.057 0.126 0.069 0.185-0.011-0.098-0.024-0.196-0.037-0.294 0.035-0.091 0.069-0.176 0.092-0.246 0.118-0.359 0.259-0.712 0.451-1.056 0.178-0.318 0.381-0.633 0.603-0.937 0.103-0.142 0.208-0.284 0.313-0.425 0.068-0.093 0.133-0.242 0.228-0.33-0.614 0.511-1.285 1.025-1.675 1.639z"></path>
<path fill="#f58b3d" style="fill: var(--color1, #f58b3d)" d="M40.574 5.894c-0.176-0.534-0.589-0.953-1.018-1.336-0.835-0.746-1.285-1.207-1.582-2.299-0.175-0.642-0.353-1.322-0.908-1.788-0.404-0.339-1.1-0.624-1.641-0.381-0.832 0.452-1.055 1.379-0.971 2.209 0.104 1.029 0.632 1.664 1.647 2.043 0.572 0.213 0.952 0.495 1.262 0.986 0.248 0.392 0.393 0.884 0.705 1.24 0.466 0.532 1.050 0.768 1.769 0.68-0.674-1.128-1.461-2.267-2.411-3.217-0.089-0.095-0.613-0.461-0.508-0.624 0.117-0.179 0.655 0.494 0.651 0.49 0.276 0.288 0.531 0.595 0.782 0.904-0 0-0.001 0-0.002 0.001 0.258 0.317 0.514 0.639 0.766 0.965 0.102 0.138 0.201 0.278 0.295 0.421 0.139 0.21 0.359 0.806 0.587 0.936 0.049 0.028 0.094 0.043 0.136 0.049 0.155 0.231 0.306 0.464 0.45 0.7 0.375 0.616 0.697 1.266 0.844 1.961 0.043 0.203 0.013 0.962 0.165 1.108 0.278 0.268 0.197-0.248 0.18-0.404-0.138-1.289-0.647-2.388-1.385-3.472 0.227-0.27 0.26-0.956 0.188-1.173z"></path>
<path fill="#f58b3d" style="fill: var(--color1, #f58b3d)" d="M31.045 6.517c0.293-0.314 0.999-0.368 1.43-0.347 0.534 0.026 1.082 0.144 1.589 0.287 0.836 0.235 1.649 0.665 2.386 1.081 0.089 0.050 1.182 0.649 1.086 0.754s-1.17-0.607-1.409-0.729c-0.511-0.262-0.979-0.571-1.542-0.744-0.583-0.179-1.199-0.25-1.812-0.245-0.079 0.001-0.335-0.049-0.34 0.057-0.006 0.104 0.419 0.050 0.494 0.050 0.309 0.003 0.62 0.029 0.925 0.078 0.571 0.091 1.108 0.275 1.597 0.558-0.136 0.289-0.464 0.422-0.807 0.35-0.297-0.062-0.585-0.217-0.876-0.261-0.2-0.031-0.4-0.012-0.594 0.039-0.512 0.135-0.807 0.412-1.369 0.22-0.441-0.151-1.178-0.694-0.757-1.146z"></path>
<path fill="#f58b3d" style="fill: var(--color1, #f58b3d)" d="M29.783 1.449c-0.651-0.043-1.379 0.43-1.693 0.922-0.253 0.397-0.211 0.918-0.054 1.34 0.105 0.282 0.334 0.685 0.715 0.689 0.477 0.005 0.5-0.526 0.509-0.836 0.012-0.413 0.070-0.772 0.431-1.053 0.045-0.035 0.091-0.067 0.138-0.1 0.041-0.029 0.083-0.058 0.123-0.088 0.007-0.005 0.013-0.010 0.019-0.015 0.128-0.097 0.262-0.198 0.278-0.357 0.024-0.231-0.121-0.272-0.342-0.229-0.007 0.001-0.027 0.008-0.053 0.017-0.113 0.038-0.354 0.121-0.308 0.022 0.017-0.037 0.080-0.066 0.159-0.088 0.205-0.020 0.449-0.043 0.519-0.029 0.757 0.149 1.052 1.093 1.13 1.693 0.009 0.068 0.016 0.136 0.022 0.204h0.139c-0.010-0.16-0.022-0.32-0.052-0.479-0.112-0.594-0.46-1.466-1.225-1.563-0.028-0.004-0.132-0.004-0.258 0.002-0.060-0.030-0.126-0.048-0.197-0.052z"></path>
</symbol>
</defs>
</svg>
